<svg id="Layer_1" data-name="Layer 1" xmlns="http://www.w3.org/2000/svg" width="512" height="512" viewBox="0 0 512 512"><title>portfolioLogosAll</title><path d="M143.9,397.17V159.53H369.44V397.05h-4.78c-13.75,0-27.49,0-41.24,0-8.85,0-13,2.51-15.26,11.1-2.61,9.76-4.2,19.81-6,29.78-1.14,6.36-1.65,12.84-2.77,19.21a20.24,20.24,0,0,1-2.75,6.43c-2.75,4.68-7,5.52-9.84,1a234,234,0,0,1-13.87-26c-3.46-7.43-5.59-15.48-9-22.92a55.1,55.1,0,0,0-8.52-12.67c-3.9-4.49-6.3-4.27-10.26.06-3.28,3.59-6.39,7.35-9.49,11.11-8.27,10.06-16.87,8.22-25.94-.68-3.37-3.3-6.46-6.88-9.7-10.32-4.35-4.63-9.89-6.12-16-6.11q-17.75,0-35.48,0ZM343.48,370V188.16H170.39V370.74a72.8,72.8,0,0,1,38.37,7.62c7.77,3.84,15.4,3.54,23.51-.89,15.73-8.6,21.77-7,33,6.77,3,3.65,5.93,7.37,9.2,10.76,4.35,4.52,8,4.86,12.78.85a43.92,43.92,0,0,0,8.26-9.17c7.38-11.06,17.36-16.92,30.79-16.67C331.9,370.11,337.5,370,343.48,370Z"/><path d="M122.06,159.53v236.8c-13.46,0-26.77.94-39.89-.29-10.91-1-18.78-11.46-19.6-22.53-.12-1.62-.2-3.24-.2-4.87q0-90.45,0-180.9c0-10.64,3.26-19.58,12.87-24.92a28.4,28.4,0,0,1,12.09-3.39c10.33-.47,20.69-.16,31-.14C119.6,159.29,120.87,159.45,122.06,159.53Z"/><path d="M391.8,160.28c13.34,0,26.5-.69,39.54.23,10.05.7,19,11.75,19.84,22,.14,1.77.18,3.54.18,5.31q0,90.89.06,181.76c0,9.12-2.55,16.95-9.94,22.48-3,2.23-6.71,4.62-10.19,4.77-13.06.56-26.16.23-39.49.23Z"/><path d="M344.83,138.21H322.6c0-8.3.2-16.38-.05-24.44-.3-9.46-4.83-13.73-14.61-13.81-15.36-.14-30.73-.06-46.09-.06q-26.6,0-53.18,0c-10.44,0-15.17,4.54-15.63,14.94-.17,3.83-.14,7.68-.16,11.52s0,7.63,0,11.76H170.15c.51-12.72-.12-25.63,1.83-38.14,2-13,13.44-21.43,26.63-21.49q59.16-.3,118.32,0c15.59.11,27.48,12.37,27.85,28C345,117,344.83,127.43,344.83,138.21Z"/></svg>