<svg id="Layer_1" data-name="Layer 1" xmlns="http://www.w3.org/2000/svg" width="512" height="512" viewBox="0 0 512 512"><title>miitronomeLogoPortfolio</title><polygon points="264.65 3.77 247.35 3.77 247.35 3.77 264.65 3.77 264.65 3.77" style="fill:none;stroke:#222221;stroke-miterlimit:10;stroke-width:7px"/><path d="M271,81.53V4.8a1,1,0,0,0-1-1H242a1,1,0,0,0-1,1V81.53Z" style="fill:none;stroke:#222221;stroke-miterlimit:10;stroke-width:7px"/><path d="M241,314.71V506.43a1,1,0,0,0,1,1h28a1,1,0,0,0,1-1V314.71Z" style="fill:none;stroke:#222221;stroke-miterlimit:10;stroke-width:7px"/><path d="M307.62,81.53H204.38A7.48,7.48,0,0,0,196.9,89V307.23a7.48,7.48,0,0,0,7.48,7.48H307.62a7.48,7.48,0,0,0,7.48-7.48V89A7.48,7.48,0,0,0,307.62,81.53Z" style="fill:none;stroke:#222221;stroke-miterlimit:10;stroke-width:7px"/></svg>