<?xml version="1.0" encoding="utf-8"?>
<!-- Generator: Adobe Illustrator 22.1.0, SVG Export Plug-In . SVG Version: 6.00 Build 0)  -->
<svg version="1.1" id="Layer_1" xmlns="http://www.w3.org/2000/svg" xmlns:xlink="http://www.w3.org/1999/xlink" x="0px" y="0px"
	 viewBox="0 0 750 64.5" style="enable-background:new 0 0 750 64.5;" xml:space="preserve">
<style type="text/css">
	.st0{clip-path:url(#SVGID_2_);}
	.st1{fill:none;stroke:#000000;stroke-width:0.7741;stroke-linejoin:bevel;}
	.st2{fill:none;stroke:#000000;stroke-width:2.4771;stroke-linejoin:bevel;}
	.st3{fill:none;stroke:#000000;stroke-width:0.3096;stroke-linejoin:bevel;}
	.st4{fill:none;stroke:#000000;stroke-width:0.1548;stroke-linejoin:bevel;}
	.st5{fill:none;stroke:#000000;stroke-width:0.4644;stroke-linejoin:bevel;}
</style>
<title>sibeliusViolinConcerto</title>
<g>
	<g>
		<defs>
			<rect id="SVGID_1_" x="1" y="-0.3" width="750" height="83"/>
		</defs>
		<clipPath id="SVGID_2_">
			<use xlink:href="#SVGID_1_"  style="overflow:visible;"/>
		</clipPath>
		<g class="st0">
			<line class="st1" x1="125.1" y1="27" x2="125.1" y2="46.8"/>
			<line class="st1" x1="203.4" y1="27" x2="203.4" y2="46.8"/>
			<line class="st1" x1="269.2" y1="27" x2="269.2" y2="46.8"/>
			<line class="st1" x1="360.9" y1="27" x2="360.9" y2="46.8"/>
			<line class="st1" x1="425.9" y1="27" x2="425.9" y2="46.8"/>
			<line class="st1" x1="516.8" y1="27" x2="516.8" y2="46.8"/>
			<line class="st1" x1="581.8" y1="27" x2="581.8" y2="46.8"/>
			<line class="st1" x1="672.5" y1="27" x2="672.5" y2="46.8"/>
			<line class="st1" x1="729" y1="27" x2="729" y2="46.8"/>
			<line class="st2" x1="732.5" y1="27" x2="732.5" y2="46.8"/>
			<path class="st3" d="M96.8,20.8c7.8-5.7,31.1-5.7,38.9,0"/>
			<path d="M96.8,20.8c7.8-6.5,31.1-6.5,38.9,0C127.9,15.9,104.5,15.9,96.8,20.8z"/>
			<path class="st4" d="M96.8,20.8c7.8-6.5,31.1-6.5,38.9,0C127.9,15.9,104.5,15.9,96.8,20.8z"/>
			<path class="st3" d="M175.3,28.3c7.7-5.7,31-5.7,38.7,0"/>
			<path d="M175.3,28.3c7.7-6.5,31-6.5,38.7,0C206.2,23.3,183,23.3,175.3,28.3z"/>
			<path class="st4" d="M175.3,28.3c7.7-6.5,31-6.5,38.7,0C206.2,23.3,183,23.3,175.3,28.3z"/>
			<path class="st3" d="M332.6,28.3c7.7-5.7,31.1-5.7,38.9,0"/>
			<path d="M332.6,28.3c7.7-6.5,31.1-6.5,38.9,0C363.7,23.3,340.3,23.3,332.6,28.3z"/>
			<path class="st4" d="M332.6,28.3c7.7-6.5,31.1-6.5,38.9,0C363.7,23.3,340.3,23.3,332.6,28.3z"/>
			<path d="M49.6,34.1v0.5c0,0.1,0,0.3,0,0.4c0,0.5,0.2,0.6,1.1,0.7l0.1,0.6h-4.9v-0.6c0.6,0,1-0.2,1.1-0.4c0.1-0.4,0.1-0.8,0.1-1.2
				h-4v-0.8c1.4-1.9,2.2-4.1,2.5-6.4H49c-0.4,1.2-1.1,2.4-2.1,3.2c-1,0.9-1.8,2-2.5,3.1h2.7v-2.3l2.5-2.2v4.5h1.3V34h-1.3V34.1z"/>
			<path d="M49.6,44.2v0.5c0,0.1,0,0.3,0,0.4c0,0.5,0.2,0.6,1.1,0.7l0.1,0.6h-4.9v-0.6c0.6,0,1-0.2,1.1-0.4c0.1-0.4,0.1-0.8,0.1-1.2
				h-4v-0.8c1.4-1.9,2.2-4.1,2.5-6.4H49c-0.4,1.2-1.1,2.3-2.1,3.2s-1.8,2-2.5,3.1h2.7V41l2.5-2.2v4.5h1.3v0.9H49.6z"/>
			<line class="st5" x1="12.9" y1="46.8" x2="733.7" y2="46.8"/>
			<line class="st5" x1="12.9" y1="41.9" x2="733.7" y2="41.9"/>
			<line class="st5" x1="12.9" y1="36.9" x2="733.7" y2="36.9"/>
			<line class="st5" x1="12.9" y1="32" x2="733.7" y2="32"/>
			<line class="st5" x1="12.9" y1="27" x2="733.7" y2="27"/>
			<path d="M24.7,46.7c-4.2,0-8.1-3.1-8.1-6.9c0-3.2,2.3-6.7,6.8-10.5C23.1,28.2,23,27,23,25.7c0-3.5,1.2-6.8,3.2-8.4
				c1.6,2,2.6,4.5,2.7,7.1c0,2.9-1.4,5.6-4.3,8.1l0.9,4.2l0.8-0.1c2.6,0,4.7,2,4.7,4.6c0,0,0,0,0,0.1c0,1.9-1.5,3.8-3.6,4.8
				c0-0.1,0.9,3.8,0.9,4.3c0,2.5-2.3,4.2-4.9,4.2c-1.9,0.1-3.5-1.3-3.6-3.2c0-0.1,0-0.1,0-0.2c-0.1-1.3,0.9-2.5,2.3-2.6
				c0.1,0,0.1,0,0.2,0c1.3,0.1,2.3,1.2,2.3,2.6c0,1.4-1.1,2.3-2.7,2.5c0.6,0.3,1.2,0.5,1.9,0.5c2.1,0,4.1-1.6,4.1-3.6
				c0-0.2,0-0.4-0.1-0.6L27,46.2C26.3,46.5,25.5,46.7,24.7,46.7z M22.5,41.5c0,1.1,0.7,2,1.6,2.5c-1.7-0.1-3-1.5-3-3.1
				c0.2-2.1,1.7-3.8,3.8-4.1l-0.8-4c-3.7,2.8-5.7,5.5-5.7,8.1c0,2.9,2.8,5.3,6,5.3c0.8,0,1.7-0.2,2.4-0.5l-1.4-6.8
				C23.8,39.1,22.5,40.1,22.5,41.5z M26.5,20.1c-1.6,0-2.9,3.7-2.9,7c0,0.6,0,1.3,0.2,1.9c2.7-2.4,4.1-4.5,4.1-6.5
				c0-0.9-0.4-1.8-1-2.4C26.7,20.2,26.6,20.1,26.5,20.1L26.5,20.1z M29.3,42c0.1-1.7-1.2-3.1-2.9-3.3h-0.5l1.4,6.6
				C28.5,44.6,29.2,43.4,29.3,42z"/>
			<path d="M33.9,28.6h0.6l-0.1,6.3c0.4-0.7,1.1-1,1.8-1c1.1-0.1,2.1,0.8,2.2,1.9l0,0c-0.2,1.1-0.8,2.1-1.8,2.7l-2.8,2.1L33.9,28.6
				L33.9,28.6z M34.5,35.5c-0.1,0.8-0.1,1.4-0.1,1.9c0,0.7,0,1.3,0.1,2c1-0.7,2.4-2.6,2.4-3.7c0-0.6-0.5-1.1-1-1.1c0,0,0,0-0.1,0
				C35.2,34.7,34.7,35,34.5,35.5z"/>
			<rect x="302.8" y="40.7" width="17.3" height="2.5"/>
			<rect x="302.8" y="44.4" width="17.3" height="2.5"/>
			<path class="st3" d="M412,17.6c8.5-9,53-9.4,61.6-0.8"/>
			<path d="M412,17.6c8.5-9.8,53-10.2,61.6-0.8C464.9,8.9,420.5,9.4,412,17.6z"/>
			<path class="st4" d="M412,17.6c8.5-9.8,53-10.2,61.6-0.8C464.9,8.9,420.5,9.4,412,17.6z"/>
			<polygon points="495.6,39.4 505.5,38.2 505.5,35.7 495.6,36.9 			"/>
			<polygon points="495.6,43.1 505.5,41.9 505.5,39.4 495.6,40.7 			"/>
			<path class="st3" d="M528.7,10.2c5.6-7.3,31.1-8.8,37.6-2.5"/>
			<path d="M528.7,10.2c5.6-8,31.1-9.6,37.6-2.5C559.8,2.1,534.3,3.6,528.7,10.2z"/>
			<path class="st4" d="M528.7,10.2c5.6-8,31.1-9.6,37.6-2.5C559.8,2.1,534.3,3.6,528.7,10.2z"/>
			<polygon points="651.3,39.4 661.2,38.2 661.2,35.7 651.3,36.9 			"/>
			<polygon points="651.3,43.1 661.2,41.9 661.2,39.4 651.3,40.7 			"/>
			<path class="st3" d="M96.9,17.6c8.7-8.5,55-8,63.8,0"/>
			<path d="M96.9,17.6c8.7-9.3,55-8.8,63.8,0C151.9,10.3,105.6,9.8,96.9,17.6z"/>
			<path class="st4" d="M96.9,17.6c8.7-9.3,55-8.8,63.8,0C151.9,10.3,105.6,9.8,96.9,17.6z"/>
			<path class="st3" d="M255,24.5c9.1-8.7,58.5-8.7,67.6,0"/>
			<path d="M255,24.5c9.1-9.4,58.5-9.4,67.6,0C313.5,16.7,264.1,16.7,255,24.5z"/>
			<path class="st4" d="M255,24.5c9.1-9.4,58.5-9.4,67.6,0C313.5,16.7,264.1,16.7,255,24.5z"/>
			<path d="M312.9,51.2c0,0.9-0.6,1.6-1.4,1.9v0.1c0.6,0.1,1,0.6,1,1.2c0,1.5-1.3,2.3-3,2.3c-1.2,0-2.1-0.4-2.1-1.2
				c0-0.6,0.5-1.1,1.1-1.1l0,0c0.3,0,0.6,0.2,0.7,0.5c0,0,0,0,0,0.1c-0.1,0.4-0.3,0.7-0.6,1c0.2,0.2,0.6,0.4,0.9,0.3
				c1,0,1.5-0.6,1.5-1.8c0-0.6-0.3-1-0.9-1h-0.4c-0.2,0-0.3-0.1-0.3-0.2v-0.1c0-0.3,0.3-0.3,0.6-0.3h0.3c0.6,0,1.4-0.1,1.4-1.7
				c0-0.7-0.4-1-1.1-1c-0.3,0-0.6,0.1-0.8,0.2c0,0,0.3,0.5,0.3,0.8c0,0.5-0.4,1-0.9,1h-0.1c-0.4,0-0.7-0.2-0.7-0.6c0,0,0,0,0-0.1
				c0-1,1.2-1.7,2.6-1.7C312,49.7,312.9,50.4,312.9,51.2z"/>
			<path class="st3" d="M593.7,12.6c4.5-5.4,19.5-4.2,22.9,2"/>
			<path d="M593.7,12.6c4.5-6.2,19.5-5,22.9,2C613.2,9.2,598.2,8,593.7,12.6z"/>
			<path class="st4" d="M593.7,12.6c4.5-6.2,19.5-5,22.9,2C613.2,9.2,598.2,8,593.7,12.6z"/>
			<path d="M58.7,34.5h5.6v2.4h-5.6C58.7,36.9,58.7,34.5,58.7,34.5z"/>
			<line class="st5" x1="92.9" y1="25.3" x2="92.9" y2="41.9"/>
			<path d="M97,21.8c1.7,0,2.7,0.7,2.7,2c0,1.9-2.3,3.4-4.5,3.4c-1.3,0-2.4-0.7-2.4-1.8C92.8,23.6,95,21.8,97,21.8z M93.2,25.7
				c0,0.6,0.4,0.9,1.1,0.9c1.4,0,4.9-2.1,4.9-3.3c0-0.6-0.4-0.9-1.1-0.9C96.9,22.4,93.2,24.5,93.2,25.7L93.2,25.7z"/>
			<line class="st5" x1="133" y1="25.3" x2="133" y2="41.9"/>
			<path d="M132.9,25.4c0-1.8,2.5-3.5,4.5-3.5c1.3,0,2.3,0.7,2.3,1.7c0,1.8-2.5,3.5-4.6,3.5C133.8,27.1,132.9,26.5,132.9,25.4z"/>
			<path d="M143.9,24.5c0,0.5-0.5,0.9-1,0.9l0,0c-0.5,0-0.9-0.4-0.9-0.9s0.4-0.9,0.9-0.9C143.4,23.6,143.8,24,143.9,24.5L143.9,24.5
				z"/>
			<line class="st1" x1="156.2" y1="22.1" x2="166.8" y2="22.1"/>
			<line class="st5" x1="158.2" y1="22.8" x2="158.2" y2="39.4"/>
			<path d="M158.1,22.9c0-1.8,2.5-3.5,4.5-3.5c1.3,0,2.3,0.7,2.3,1.7c0,1.7-2.5,3.4-4.6,3.4C159.1,24.6,158.1,24,158.1,22.9z"/>
			<path d="M158.3,34.5c0.8,0,0.9,0,2.1-1c1-0.8,1.6-1.3,1.7-1.4c0.8-0.9,1.3-2.1,1.3-3.3c-0.1-1.1-0.4-2.2-1-3.2
				c-0.1-0.1-0.1-0.2-0.1-0.4c0-0.1,0-0.2,0.1-0.2c0.5,0,1.3,1.9,1.5,3c0.1,0.5,0.2,1.1,0.2,1.6c0,1.1-0.4,2.2-1.1,3
				c-0.7,0.9-1.6,1.7-2.3,2.5c-0.9,1.2-1.7,2.6-2.2,4c0,0.1,0,0.1,0,0.2c0,0.1,0,0.1,0,0.2c0,0-0.1,0-0.3,0L158.3,34.5z"/>
			<line class="st5" x1="171.4" y1="32.7" x2="171.4" y2="49.3"/>
			<path d="M175.5,29.3c1.6,0,2.7,0.7,2.7,2c0,1.9-2.3,3.4-4.5,3.4c-1.4,0-2.4-0.7-2.4-1.8C171.2,31.1,173.5,29.3,175.5,29.3z
				 M171.7,33.1c0,0.6,0.4,0.9,1.1,0.9c1.4,0,4.9-2.1,4.9-3.3c0-0.6-0.4-0.9-1.1-0.9C175.4,29.9,171.7,31.9,171.7,33.1z"/>
			<line class="st5" x1="211.3" y1="32.7" x2="211.3" y2="49.3"/>
			<path d="M215.4,29.3c1.6,0,2.7,0.7,2.7,2c0,1.9-2.3,3.4-4.5,3.4c-1.4,0-2.4-0.7-2.4-1.8C211.2,31.1,213.4,29.3,215.4,29.3z
				 M211.6,33.1c0,0.6,0.4,0.9,1.1,0.9c1.4,0,4.9-2.1,4.9-3.3c0-0.6-0.4-0.9-1.1-0.9C215.3,29.9,211.6,31.9,211.6,33.1z"/>
			<path d="M222.4,29.5c0,0.5-0.4,0.9-0.9,0.9s-0.9-0.4-0.9-0.9s0.4-0.9,0.9-1C221.9,28.5,222.3,28.9,222.4,29.5L222.4,29.5z"/>
			<line class="st5" x1="251" y1="32.7" x2="251" y2="49.3"/>
			<path d="M250.8,32.8c0-1.8,2.5-3.5,4.5-3.5c1.3,0,2.3,0.7,2.3,1.7c0,1.8-2.5,3.5-4.6,3.5C251.8,34.5,250.8,33.9,250.8,32.8z"/>
			<line class="st5" x1="277.1" y1="27.8" x2="277.1" y2="44.4"/>
			<path d="M277,27.9c0-1.8,2.5-3.5,4.5-3.5c1.3,0,2.3,0.7,2.3,1.7c0,1.7-2.5,3.5-4.6,3.5C278,29.6,277,29,277,27.9z"/>
			<path d="M288,24.5c-0.1,0.5-0.5,0.9-1,0.9s-0.9-0.4-0.9-0.9c-0.1-0.5,0.3-1,0.8-1c0.5-0.1,1,0.3,1,0.8
				C288,24.4,288,24.5,288,24.5L288,24.5z"/>
			<line class="st5" x1="302.8" y1="30.3" x2="302.8" y2="46.7"/>
			<path d="M302.7,30.4c0-1.8,2.5-3.5,4.5-3.5c1.3,0,2.3,0.7,2.3,1.7c0,1.7-2.5,3.5-4.6,3.5C303.6,32.1,302.7,31.4,302.7,30.4z"/>
			<line class="st5" x1="311.5" y1="27.8" x2="311.5" y2="46.7"/>
			<path d="M311.4,27.9c0-1.8,2.5-3.5,4.5-3.5c1.3,0,2.3,0.7,2.3,1.7c0,1.7-2.5,3.5-4.6,3.5C312.3,29.6,311.4,29,311.4,27.9z"/>
			<line class="st5" x1="320.2" y1="30.3" x2="320.2" y2="46.7"/>
			<path d="M320,30.4c0-1.8,2.5-3.5,4.5-3.5c1.3,0,2.3,0.7,2.3,1.7c0,1.7-2.5,3.5-4.6,3.5C321,32.1,320,31.4,320,30.4z"/>
			<line class="st5" x1="328.7" y1="32.7" x2="328.7" y2="49.3"/>
			<path d="M332.8,29.3c1.6,0,2.7,0.7,2.7,2c0,1.9-2.3,3.4-4.5,3.4c-1.3,0-2.4-0.7-2.4-1.8C328.5,31.1,330.8,29.3,332.8,29.3z
				 M329,33.1c0,0.6,0.4,0.9,1.1,0.9c1.4,0,4.9-2.1,4.9-3.3c0-0.6-0.4-0.9-1.1-0.9C332.7,29.9,329,31.9,329,33.1z"/>
			<line class="st5" x1="368.8" y1="32.7" x2="368.8" y2="49.3"/>
			<path d="M372.9,29.3c1.6,0,2.7,0.7,2.7,2c0,1.9-2.3,3.4-4.5,3.4c-1.4,0-2.4-0.7-2.4-1.8C368.6,31.1,370.9,29.3,372.9,29.3z
				 M369.1,33.1c0,0.6,0.4,0.9,1.1,0.9c1.4,0,4.9-2.1,4.9-3.3c0-0.6-0.4-0.9-1.1-0.9C372.8,29.9,369.1,31.9,369.1,33.1L369.1,33.1z"
				/>
			<path d="M379.8,29.5c0,0.5-0.4,0.9-1,0.9c-0.5,0-0.9-0.4-0.9-0.9s0.4-0.9,0.9-1C379.4,28.5,379.8,28.9,379.8,29.5L379.8,29.5z"/>
			<line class="st1" x1="405.9" y1="22.1" x2="416.5" y2="22.1"/>
			<line class="st5" x1="408" y1="22.8" x2="408" y2="39.4"/>
			<path d="M407.8,22.9c0-1.8,2.5-3.5,4.5-3.5c1.3,0,2.3,0.7,2.3,1.7c0,1.7-2.5,3.4-4.6,3.4C408.8,24.6,407.8,24,407.8,22.9z"/>
			<line class="st1" x1="431.8" y1="22.1" x2="442.3" y2="22.1"/>
			<line class="st1" x1="431.8" y1="17.1" x2="442.3" y2="17.1"/>
			<line class="st5" x1="433.8" y1="17.9" x2="433.8" y2="36.9"/>
			<path d="M433.7,18c0-1.8,2.5-3.5,4.5-3.5c1.3,0,2.3,0.7,2.3,1.7c0,1.8-2.5,3.5-4.5,3.5C434.6,19.7,433.7,19.1,433.7,18z"/>
			<path d="M444.7,14.6c-0.1,0.5-0.5,0.9-1,0.9s-0.9-0.4-0.9-0.9s0.4-0.9,0.9-0.9S444.7,14.1,444.7,14.6L444.7,14.6L444.7,14.6z"/>
			<line class="st1" x1="456.4" y1="22.1" x2="466.9" y2="22.1"/>
			<line class="st5" x1="458.4" y1="20.4" x2="458.4" y2="36.9"/>
			<path d="M458.3,20.4c0-1.8,2.5-3.5,4.5-3.5c1.3,0,2.3,0.7,2.3,1.7c0,1.7-2.5,3.5-4.6,3.5C459.2,22.2,458.3,21.5,458.3,20.4z"/>
			<path d="M455.1,26.4v-4l-3,1V12.8h0.5v4l3-1.1v10.6h-0.5V26.4z M452.6,21.7l2.5-0.9v-3.3l-2.5,0.9V21.7z"/>
			<path d="M458.5,32c0.8,0,0.9,0,2.1-1c1-0.8,1.5-1.2,1.7-1.4c0.8-0.9,1.3-2.1,1.3-3.3c-0.1-1.1-0.4-2.2-1-3.2
				c-0.1-0.1-0.1-0.2-0.1-0.4c0-0.1,0-0.2,0.1-0.2c0.5,0,1.3,1.9,1.5,3c0.1,0.5,0.2,1.1,0.2,1.6c0,1.1-0.4,2.2-1.1,3
				c-0.7,0.9-1.5,1.7-2.3,2.5c-0.9,1.2-1.7,2.6-2.2,4c0,0.1,0,0.1,0,0.2c0,0.1,0,0.1,0,0.2c0,0-0.1,0-0.3,0L458.5,32z"/>
			<line class="st1" x1="469.1" y1="22.1" x2="479.6" y2="22.1"/>
			<line class="st5" x1="471.1" y1="22.8" x2="471.1" y2="39.4"/>
			<path d="M471,22.9c0-1.8,2.5-3.5,4.5-3.5c1.3,0,2.3,0.7,2.3,1.7c0,1.7-2.5,3.4-4.6,3.4C471.9,24.6,471,24,471,22.9z"/>
			<path d="M482,19.6c0,0.5-0.5,0.9-1,0.9l0,0c-0.5,0-0.9-0.4-0.9-0.9s0.4-0.9,0.9-0.9S481.9,19.1,482,19.6
				C481.9,19.6,481.9,19.6,482,19.6L482,19.6z"/>
			<line class="st5" x1="495.6" y1="25.3" x2="495.6" y2="43"/>
			<path d="M495.4,25.4c0-1.8,2.5-3.5,4.5-3.5c1.3,0,2.3,0.7,2.3,1.7c0,1.8-2.5,3.5-4.6,3.5C496.4,27.1,495.4,26.5,495.4,25.4z"/>
			<path d="M493,17.7v2.8l1-0.3V22l-1,0.3v3.4l1-0.3v1.8l-1,0.3v3.1h-0.5v-3l-1.9,0.6v3h-0.5v-2.8l-1,0.3v-1.8l1-0.3v-3.4l-1,0.3
				v-1.8l1-0.3v-3.1h0.5v3l1.9-0.6v-3C492.5,17.7,493,17.7,493,17.7z M492.5,22.5l-1.9,0.6v3.4l1.9-0.6V22.5z"/>
			<line class="st1" x1="503.5" y1="22.1" x2="514" y2="22.1"/>
			<line class="st5" x1="505.5" y1="22.8" x2="505.5" y2="41.7"/>
			<path d="M505.3,22.9c0-1.8,2.5-3.5,4.5-3.5c1.3,0,2.3,0.7,2.3,1.7c0,1.7-2.5,3.4-4.6,3.4C506.3,24.6,505.3,24,505.3,22.9z"/>
			<line class="st1" x1="522.7" y1="22.1" x2="533.4" y2="22.1"/>
			<line class="st1" x1="522.7" y1="17.1" x2="533.4" y2="17.1"/>
			<line class="st5" x1="524.7" y1="15.4" x2="524.7" y2="36.9"/>
			<path d="M528.8,11.9c1.7,0,2.7,0.7,2.7,2c0,1.9-2.3,3.4-4.5,3.4c-1.3,0-2.4-0.6-2.4-1.8C524.5,13.7,526.8,11.9,528.8,11.9z
				 M525,15.8c0,0.6,0.4,0.9,1.1,0.9c1.4,0,4.9-2.1,4.9-3.3c0-0.6-0.4-0.9-1.1-0.9C528.7,12.5,525,14.6,525,15.8z"/>
			<path d="M535.7,14.6c0,0.5-0.5,0.9-1,0.9l0,0c-0.5,0-0.9-0.4-0.9-0.9s0.4-0.9,0.9-0.9S535.6,14.1,535.7,14.6L535.7,14.6
				L535.7,14.6z"/>
			<line class="st1" x1="561.8" y1="22.1" x2="572.4" y2="22.1"/>
			<line class="st1" x1="561.8" y1="17.1" x2="572.4" y2="17.1"/>
			<line class="st1" x1="561.8" y1="12.2" x2="572.4" y2="12.2"/>
			<line class="st5" x1="563.9" y1="12.9" x2="563.9" y2="36.9"/>
			<path d="M563.7,13c0-1.8,2.5-3.5,4.5-3.5c1.3,0,2.3,0.7,2.3,1.7c0,1.7-2.5,3.5-4.6,3.5C564.7,14.7,563.7,14.1,563.7,13z"/>
			<line class="st1" x1="587.7" y1="22.1" x2="598.2" y2="22.1"/>
			<line class="st1" x1="587.7" y1="17.1" x2="598.2" y2="17.1"/>
			<line class="st5" x1="589.7" y1="17.9" x2="589.7" y2="36.9"/>
			<path d="M589.6,18c0-1.8,2.5-3.5,4.5-3.5c1.3,0,2.3,0.7,2.3,1.7c0,1.8-2.5,3.5-4.5,3.5C590.5,19.7,589.6,19.1,589.6,18z"/>
			<path d="M600.6,14.6c-0.1,0.5-0.5,0.9-1,0.9s-0.9-0.4-0.9-0.9s0.4-0.9,0.9-0.9S600.5,14.1,600.6,14.6
				C600.5,14.6,600.5,14.6,600.6,14.6L600.6,14.6z"/>
			<line class="st1" x1="612.2" y1="22.1" x2="622.7" y2="22.1"/>
			<line class="st5" x1="614.2" y1="20.4" x2="614.2" y2="36.9"/>
			<path d="M614,20.4c0-1.8,2.5-3.5,4.5-3.5c1.3,0,2.3,0.7,2.3,1.7c0,1.7-2.5,3.5-4.6,3.5C615,22.2,614,21.5,614,20.4z"/>
			<path d="M610.9,26.4v-4l-3,1V12.8h0.5v4l3-1.1v10.6h-0.5V26.4z M608.3,21.7l2.5-0.9v-3.3l-2.5,0.9V21.7z"/>
			<path d="M614.2,32c0.8,0,0.9,0,2.2-1c1-0.8,1.5-1.2,1.7-1.4c0.8-0.9,1.3-2.1,1.3-3.3c-0.1-1.1-0.4-2.2-1-3.2
				c-0.1-0.1-0.1-0.2-0.1-0.4c0-0.1,0-0.2,0.1-0.2c0.5,0,1.3,1.9,1.5,3c0.1,0.5,0.2,1.1,0.2,1.6c0,1.1-0.4,2.2-1.1,3
				c-0.7,0.9-1.5,1.7-2.3,2.5c-0.9,1.2-1.7,2.6-2.2,4c0,0.1,0,0.1,0,0.2c0,0.1,0,0.1,0,0.2c0,0-0.1,0-0.3,0L614.2,32z"/>
			<line class="st1" x1="624.8" y1="22.1" x2="635.4" y2="22.1"/>
			<line class="st5" x1="626.9" y1="22.8" x2="626.9" y2="39.4"/>
			<path d="M626.7,22.9c0-1.8,2.5-3.5,4.5-3.5c1.3,0,2.3,0.7,2.3,1.7c0,1.7-2.5,3.4-4.6,3.4C627.7,24.6,626.7,24,626.7,22.9z"/>
			<path d="M637.7,19.6c0,0.5-0.5,0.9-1,0.9l0,0c-0.5,0-0.9-0.4-0.9-0.9c-0.1-0.5,0.3-1,0.8-1c0.5-0.1,1,0.3,1,0.8
				C637.7,19.5,637.7,19.5,637.7,19.6L637.7,19.6z"/>
			<line class="st5" x1="651.3" y1="25.3" x2="651.3" y2="43"/>
			<path d="M651.2,25.4c0-1.8,2.5-3.5,4.5-3.5c1.3,0,2.3,0.7,2.3,1.7c0,1.8-2.5,3.5-4.6,3.5C652.1,27.1,651.2,26.5,651.2,25.4z"/>
			<path d="M648.8,17.7v2.8l1-0.3V22l-1,0.3v3.4l1-0.3v1.8l-1,0.3v3.1h-0.5v-3l-1.9,0.6v3h-0.5v-2.8l-1,0.3v-1.8l1-0.3v-3.4l-1,0.3
				v-1.8l1-0.3v-3.1h0.5v3l1.9-0.6v-3C648.3,17.7,648.8,17.7,648.8,17.7z M648.3,22.5l-1.9,0.6v3.4l1.9-0.6V22.5z"/>
			<line class="st1" x1="659.2" y1="22.1" x2="669.8" y2="22.1"/>
			<line class="st5" x1="661.2" y1="22.8" x2="661.2" y2="41.7"/>
			<path d="M661.1,22.9c0-1.8,2.5-3.5,4.5-3.5c1.3,0,2.3,0.7,2.3,1.7c0,1.7-2.5,3.4-4.6,3.4C662,24.6,661.1,24,661.1,22.9z"/>
			<line class="st1" x1="677.8" y1="22.1" x2="692" y2="22.1"/>
			<path d="M685,19.4c2.2,0,4.5,1.1,4.5,2.7c0,1.6-1.9,2.7-4.7,2.7c-2.5,0-4.5-1-4.5-2.7S682.6,19.4,685,19.4z M686.9,21.5
				c-0.4-1.1-1.4-1.8-2.6-1.7c-1.3,0-1.9,0.5-1.9,1.5c0,1.5,1.1,2.8,2.6,3c1.1,0,2.1-0.1,2.3-1.2C687.3,22.6,687.2,22,686.9,21.5z"
				/>
		</g>
	</g>
</g>
</svg>
