<svg id="Layer_1" data-name="Layer 1" xmlns="http://www.w3.org/2000/svg" xmlns:xlink="http://www.w3.org/1999/xlink" width="750" height="83" viewBox="0 0 750 83"><defs><clipPath id="clip-path"><rect x="2" y="9.5" width="746" height="64" style="fill:none"/></clipPath></defs><title>sibeliusViolinConcerto</title><g style="clip-path:url(#clip-path)"><line x1="126.11" y1="36.82" x2="126.11" y2="56.64" style="fill:none;stroke:#000;stroke-linejoin:bevel;stroke-width:0.7740822434425354px"/><line x1="204.44" y1="36.82" x2="204.44" y2="56.64" style="fill:none;stroke:#000;stroke-linejoin:bevel;stroke-width:0.7740822434425354px"/><line x1="270.24" y1="36.82" x2="270.24" y2="56.64" style="fill:none;stroke:#000;stroke-linejoin:bevel;stroke-width:0.7740822434425354px"/><line x1="361.89" y1="36.82" x2="361.89" y2="56.64" style="fill:none;stroke:#000;stroke-linejoin:bevel;stroke-width:0.7740822434425354px"/><line x1="426.91" y1="36.82" x2="426.91" y2="56.64" style="fill:none;stroke:#000;stroke-linejoin:bevel;stroke-width:0.7740822434425354px"/><line x1="517.79" y1="36.82" x2="517.79" y2="56.64" style="fill:none;stroke:#000;stroke-linejoin:bevel;stroke-width:0.7740822434425354px"/><line x1="582.81" y1="36.82" x2="582.81" y2="56.64" style="fill:none;stroke:#000;stroke-linejoin:bevel;stroke-width:0.7740822434425354px"/><line x1="673.54" y1="36.82" x2="673.54" y2="56.64" style="fill:none;stroke:#000;stroke-linejoin:bevel;stroke-width:0.7740822434425354px"/><line x1="730.04" y1="36.82" x2="730.04" y2="56.64" style="fill:none;stroke:#000;stroke-linejoin:bevel;stroke-width:0.7740822434425354px"/><line x1="733.45" y1="36.82" x2="733.45" y2="56.64" style="fill:none;stroke:#000;stroke-linejoin:bevel;stroke-width:2.4770631790161133px"/><path d="M97.77,30.63c7.75-5.73,31.12-5.73,38.86,0" style="fill:none;stroke:#000;stroke-linejoin:bevel;stroke-width:0.30963289737701416px"/><path d="M97.77,30.63c7.75-6.5,31.12-6.5,38.86,0C128.89,25.68,105.52,25.68,97.77,30.63Z" style="fill-rule:evenodd"/><path d="M97.77,30.63c7.75-6.5,31.12-6.5,38.86,0C128.89,25.68,105.52,25.68,97.77,30.63Z" style="fill:none;stroke:#000;stroke-linejoin:bevel;stroke-width:0.15481644868850708px"/><path d="M176.27,38.06c7.74-5.73,31-5.73,38.7,0" style="fill:none;stroke:#000;stroke-linejoin:bevel;stroke-width:0.30963289737701416px"/><path d="M176.27,38.06c7.74-6.5,31-6.5,38.7,0C207.23,33.11,184,33.11,176.27,38.06Z" style="fill-rule:evenodd"/><path d="M176.27,38.06c7.74-6.5,31-6.5,38.7,0C207.23,33.11,184,33.11,176.27,38.06Z" style="fill:none;stroke:#000;stroke-linejoin:bevel;stroke-width:0.15481644868850708px"/><path d="M333.56,38.06c7.74-5.73,31.12-5.73,38.86,0" style="fill:none;stroke:#000;stroke-linejoin:bevel;stroke-width:0.30963289737701416px"/><path d="M333.56,38.06c7.74-6.5,31.12-6.5,38.86,0C364.68,33.11,341.3,33.11,333.56,38.06Z" style="fill-rule:evenodd"/><path d="M333.56,38.06c7.74-6.5,31.12-6.5,38.86,0C364.68,33.11,341.3,33.11,333.56,38.06Z" style="fill:none;stroke:#000;stroke-linejoin:bevel;stroke-width:0.15481644868850708px"/><path d="M50.62,43.94v.52a3.53,3.53,0,0,0,0,.38c0,.5.18.6,1.14.68l.08.58H46.91l0-.56c.62,0,1-.18,1.12-.4a5.94,5.94,0,0,0,.06-1.2H44.05v-.8a14.1,14.1,0,0,0,2.54-6.37H50A7.16,7.16,0,0,1,47.89,40a11.11,11.11,0,0,0-2.46,3.14h2.7V40.82l2.49-2.21V43.1h1.26v.84Z"/><path d="M50.62,54v.52a3.53,3.53,0,0,0,0,.38c0,.5.18.6,1.14.68l.08.58H46.91l0-.56c.62,0,1-.18,1.12-.4a5.94,5.94,0,0,0,.06-1.2H44.05v-.8a14.05,14.05,0,0,0,2.54-6.37H50A7.16,7.16,0,0,1,47.89,50a11.11,11.11,0,0,0-2.46,3.14h2.7V50.86l2.49-2.21v4.49h1.26V54Z"/><line x1="13.86" y1="56.64" x2="734.69" y2="56.64" style="fill:none;stroke:#000;stroke-linejoin:bevel;stroke-width:0.46444934606552124px"/><line x1="13.86" y1="51.68" x2="734.69" y2="51.68" style="fill:none;stroke:#000;stroke-linejoin:bevel;stroke-width:0.46444934606552124px"/><line x1="13.86" y1="46.73" x2="734.69" y2="46.73" style="fill:none;stroke:#000;stroke-linejoin:bevel;stroke-width:0.46444934606552124px"/><line x1="13.86" y1="41.78" x2="734.69" y2="41.78" style="fill:none;stroke:#000;stroke-linejoin:bevel;stroke-width:0.46444934606552124px"/><line x1="13.86" y1="36.82" x2="734.69" y2="36.82" style="fill:none;stroke:#000;stroke-linejoin:bevel;stroke-width:0.46444934606552124px"/><path d="M25.69,56.48c-4.21,0-8.07-3.11-8.07-6.86q0-4.78,6.78-10.46A15.25,15.25,0,0,1,24,35.55c0-3.51,1.17-6.8,3.21-8.44a12.24,12.24,0,0,1,2.7,7.11c0,2.92-1.35,5.57-4.3,8.07l.87,4.18.79-.06A4.66,4.66,0,0,1,32,51.07c0,1.92-1.45,3.75-3.57,4.78,0-.14.85,3.78.85,4.34,0,2.48-2.25,4.2-4.91,4.2A3.41,3.41,0,0,1,20.73,61a2.42,2.42,0,0,1,2.44-2.56A2.47,2.47,0,0,1,25.43,61c0,1.37-1.15,2.3-2.68,2.46a4.18,4.18,0,0,0,1.89.46c2.14,0,4.12-1.63,4.12-3.57a3.42,3.42,0,0,0-.06-.62L28,56A5,5,0,0,1,25.69,56.48Zm-2.2-5.21a3,3,0,0,0,1.62,2.54,3.17,3.17,0,0,1-3-3.12,4.61,4.61,0,0,1,3.8-4.14l-.83-4c-3.7,2.77-5.67,5.49-5.67,8.12,0,2.92,2.78,5.32,6,5.32a4.86,4.86,0,0,0,2.4-.54L26.4,48.67C24.76,48.89,23.49,49.9,23.49,51.27Zm4-21.33c-1.64,0-2.87,3.67-2.87,7a8.66,8.66,0,0,0,.17,1.9c2.68-2.38,4.05-4.54,4.05-6.46a3.34,3.34,0,0,0-1-2.4A1.79,1.79,0,0,0,27.53,29.94ZM30.29,51.8a3.11,3.11,0,0,0-2.9-3.25l-.49,0,1.4,6.62A4.24,4.24,0,0,0,30.29,51.8Z"/><path d="M34.92,38.42h.63l-.13,6.25a2,2,0,0,1,1.84-1,2.07,2.07,0,0,1,2.2,1.94,3.73,3.73,0,0,1-1.75,2.65l-2.79,2.07Zm.57,6.9c-.07.76-.11,1.41-.11,1.94a15.43,15.43,0,0,0,.09,2c1-.66,2.4-2.64,2.4-3.67a1.06,1.06,0,0,0-1.11-1.07A1.39,1.39,0,0,0,35.49,45.32Z"/><rect x="303.84" y="50.45" width="17.34" height="2.48"/><rect x="303.84" y="54.16" width="17.34" height="2.48"/><path d="M413,27.38c8.52-9,52.95-9.45,61.62-.78" style="fill:none;stroke:#000;stroke-linejoin:bevel;stroke-width:0.30963289737701416px"/><path d="M413,27.38c8.52-9.76,52.95-10.22,61.62-.78C465.93,18.71,421.5,19.17,413,27.38Z" style="fill-rule:evenodd"/><path d="M413,27.38c8.52-9.76,52.95-10.22,61.62-.78C465.93,18.71,421.5,19.17,413,27.38Z" style="fill:none;stroke:#000;stroke-linejoin:bevel;stroke-width:0.15481644868850708px"/><polygon points="496.58 49.21 506.49 47.97 506.49 45.49 496.58 46.73 496.58 49.21" style="fill-rule:evenodd"/><polygon points="496.58 52.92 506.49 51.68 506.49 49.21 496.58 50.45 496.58 52.92" style="fill-rule:evenodd"/><path d="M529.71,20c5.58-7.28,31.12-8.83,37.62-2.48" style="fill:none;stroke:#000;stroke-linejoin:bevel;stroke-width:0.30963289737701416px"/><path d="M529.71,20c5.58-8,31.12-9.6,37.62-2.48C560.83,11.9,535.29,13.44,529.71,20Z" style="fill-rule:evenodd"/><path d="M529.71,20c5.58-8,31.12-9.6,37.62-2.48C560.83,11.9,535.29,13.44,529.71,20Z" style="fill:none;stroke:#000;stroke-linejoin:bevel;stroke-width:0.15481644868850708px"/><polygon points="652.33 49.21 662.24 47.97 662.24 45.49 652.33 46.73 652.33 49.21" style="fill-rule:evenodd"/><polygon points="652.33 52.92 662.24 51.68 662.24 49.21 652.33 50.45 652.33 52.92" style="fill-rule:evenodd"/><path d="M97.93,27.38c8.67-8.52,55-8,63.78,0" style="fill:none;stroke:#000;stroke-linejoin:bevel;stroke-width:0.30963289737701416px"/><path d="M97.93,27.38c8.67-9.29,55-8.83,63.78,0C152.89,20.1,106.6,19.64,97.93,27.38Z" style="fill-rule:evenodd"/><path d="M97.93,27.38c8.67-9.29,55-8.83,63.78,0C152.89,20.1,106.6,19.64,97.93,27.38Z" style="fill:none;stroke:#000;stroke-linejoin:bevel;stroke-width:0.15481644868850708px"/><path d="M256,34.34c9.13-8.66,58.52-8.66,67.65,0" style="fill:none;stroke:#000;stroke-linejoin:bevel;stroke-width:0.30963289737701416px"/><path d="M256,34.34c9.13-9.44,58.52-9.44,67.65,0C314.52,26.45,265.13,26.45,256,34.34Z" style="fill-rule:evenodd"/><path d="M256,34.34c9.13-9.44,58.52-9.44,67.65,0C314.52,26.45,265.13,26.45,256,34.34Z" style="fill:none;stroke:#000;stroke-linejoin:bevel;stroke-width:0.15481644868850708px"/><path d="M313.91,61a1.93,1.93,0,0,1-1.41,1.86l0,.09a1.15,1.15,0,0,1,1,1.17c0,1.52-1.31,2.27-3,2.27-1.22,0-2.1-.41-2.1-1.17a1.09,1.09,0,0,1,1.09-1.1.6.6,0,0,1,.67.58,1.77,1.77,0,0,1-.63,1,1.15,1.15,0,0,0,.88.33c1,0,1.49-.6,1.49-1.8,0-.63-.28-1-.86-1l-.42,0c-.21,0-.31-.09-.31-.18v-.09c0-.29.25-.32.57-.32h.25c.64,0,1.4-.09,1.4-1.65,0-.67-.36-1-1.08-1a1.11,1.11,0,0,0-.79.24c-.05-.05.34.5.34.78a.94.94,0,0,1-1,1,.65.65,0,0,1-.71-.66c0-1,1.17-1.67,2.65-1.67C313,59.53,313.91,60.19,313.91,61Z"/><path d="M594.74,22.42c4.49-5.41,19.5-4.18,22.91,2" style="fill:none;stroke:#000;stroke-linejoin:bevel;stroke-width:0.30963289737701416px"/><path d="M594.74,22.42c4.49-6.19,19.5-5,22.91,2C614.24,19,599.23,17.78,594.74,22.42Z" style="fill-rule:evenodd"/><path d="M594.74,22.42c4.49-6.19,19.5-5,22.91,2C614.24,19,599.23,17.78,594.74,22.42Z" style="fill:none;stroke:#000;stroke-linejoin:bevel;stroke-width:0.15481644868850708px"/><path d="M59.69,44.35h5.57v2.38H59.69Z"/><line x1="93.9" y1="35.12" x2="93.9" y2="51.68" style="fill:none;stroke:#000;stroke-linejoin:bevel;stroke-width:0.46444934606552124px"/><path d="M98,31.65c1.65,0,2.72.73,2.72,2,0,1.86-2.28,3.37-4.54,3.37-1.35,0-2.44-.65-2.44-1.76C93.75,33.43,96,31.65,98,31.65Zm-3.8,3.84c0,.62.37.94,1.12.94,1.41,0,4.94-2.1,4.94-3.26,0-.61-.38-.93-1.13-.93C97.87,32.24,94.21,34.27,94.21,35.49Z"/><line x1="134" y1="35.12" x2="134" y2="51.68" style="fill:none;stroke:#000;stroke-linejoin:bevel;stroke-width:0.46444934606552124px"/><path d="M133.85,35.2c0-1.79,2.51-3.45,4.52-3.45,1.32,0,2.26.67,2.26,1.72,0,1.75-2.52,3.45-4.56,3.45C134.82,36.92,133.85,36.29,133.85,35.2Z"/><path d="M144.86,34.34a.94.94,0,0,1-1,.9,1,1,0,0,1-.91-.9.93.93,0,1,1,1.86,0Z"/><line x1="157.22" y1="31.87" x2="167.75" y2="31.87" style="fill:none;stroke:#000;stroke-linejoin:bevel;stroke-width:0.7740822434425354px"/><line x1="159.24" y1="32.64" x2="159.24" y2="49.21" style="fill:none;stroke:#000;stroke-linejoin:bevel;stroke-width:0.46444934606552124px"/><path d="M159.08,32.72c0-1.78,2.52-3.45,4.52-3.45,1.33,0,2.26.67,2.26,1.73,0,1.74-2.52,3.44-4.56,3.44C160.05,34.44,159.08,33.81,159.08,32.72Z"/><path d="M159.28,44.25c.83,0,.91,0,2.14-1,1-.77,1.55-1.25,1.73-1.43a4.82,4.82,0,0,0,1.3-3.27,7.15,7.15,0,0,0-1-3.23.79.79,0,0,1-.12-.37c0-.12,0-.18.08-.18.48,0,1.27,1.94,1.53,3a6.19,6.19,0,0,1,.2,1.59,4.64,4.64,0,0,1-1.13,3c-.74.87-1.55,1.67-2.26,2.54a15.31,15.31,0,0,0-2.18,4,.55.55,0,0,0,0,.18.39.39,0,0,0,0,.16s-.08,0-.26,0Z"/><line x1="172.4" y1="42.55" x2="172.4" y2="59.12" style="fill:none;stroke:#000;stroke-linejoin:bevel;stroke-width:0.46444934606552124px"/><path d="M176.5,39.08c1.65,0,2.72.73,2.72,2,0,1.87-2.28,3.37-4.54,3.37-1.35,0-2.44-.65-2.44-1.76C172.24,40.86,174.48,39.08,176.5,39.08Zm-3.8,3.84c0,.62.37.94,1.13.94,1.4,0,4.93-2.1,4.93-3.25,0-.62-.37-.94-1.13-.94C176.36,39.67,172.7,41.7,172.7,42.92Z"/><line x1="212.34" y1="42.55" x2="212.34" y2="59.12" style="fill:none;stroke:#000;stroke-linejoin:bevel;stroke-width:0.46444934606552124px"/><path d="M216.45,39.08c1.64,0,2.71.73,2.71,2,0,1.87-2.28,3.37-4.54,3.37-1.35,0-2.44-.65-2.44-1.76C212.18,40.86,214.42,39.08,216.45,39.08Zm-3.81,3.84c0,.62.38.94,1.13.94,1.41,0,4.94-2.1,4.94-3.25,0-.62-.38-.94-1.13-.94C216.31,39.67,212.64,41.7,212.64,42.92Z"/><path d="M223.35,39.3a.94.94,0,0,1-.95.89,1,1,0,0,1-.91-.89.94.94,0,0,1,.91-.95A.93.93,0,0,1,223.35,39.3Z"/><line x1="251.97" y1="42.55" x2="251.97" y2="59.12" style="fill:none;stroke:#000;stroke-linejoin:bevel;stroke-width:0.46444934606552124px"/><path d="M251.82,42.63c0-1.79,2.51-3.45,4.52-3.45,1.32,0,2.26.67,2.26,1.72,0,1.75-2.52,3.45-4.56,3.45C252.79,44.35,251.82,43.72,251.82,42.63Z"/><line x1="278.14" y1="37.6" x2="278.14" y2="54.16" style="fill:none;stroke:#000;stroke-linejoin:bevel;stroke-width:0.46444934606552124px"/><path d="M278,37.67c0-1.78,2.52-3.45,4.52-3.45,1.33,0,2.26.68,2.26,1.73,0,1.74-2.52,3.45-4.56,3.45C279,39.4,278,38.76,278,37.67Z"/><path d="M289,34.34a1,1,0,0,1-1,.9,1,1,0,0,1-.91-.9.94.94,0,1,1,1.87,0Z"/><line x1="303.84" y1="40.07" x2="303.84" y2="56.48" style="fill:none;stroke:#000;stroke-linejoin:bevel;stroke-width:0.46444934606552124px"/><path d="M303.68,40.15c0-1.78,2.52-3.45,4.52-3.45,1.33,0,2.26.68,2.26,1.73,0,1.74-2.52,3.45-4.56,3.45C304.65,41.88,303.68,41.24,303.68,40.15Z"/><line x1="312.51" y1="37.6" x2="312.51" y2="56.48" style="fill:none;stroke:#000;stroke-linejoin:bevel;stroke-width:0.46444934606552124px"/><path d="M312.35,37.67c0-1.78,2.52-3.45,4.52-3.45,1.33,0,2.26.68,2.26,1.73,0,1.74-2.52,3.45-4.56,3.45C313.32,39.4,312.35,38.76,312.35,37.67Z"/><line x1="321.17" y1="40.07" x2="321.17" y2="56.48" style="fill:none;stroke:#000;stroke-linejoin:bevel;stroke-width:0.46444934606552124px"/><path d="M321,40.15c0-1.78,2.52-3.45,4.52-3.45,1.33,0,2.26.68,2.26,1.73,0,1.74-2.52,3.45-4.56,3.45C322,41.88,321,41.24,321,40.15Z"/><line x1="329.69" y1="42.55" x2="329.69" y2="59.12" style="fill:none;stroke:#000;stroke-linejoin:bevel;stroke-width:0.46444934606552124px"/><path d="M333.8,39.08c1.64,0,2.71.73,2.71,2,0,1.87-2.28,3.37-4.54,3.37-1.34,0-2.43-.65-2.43-1.76C329.54,40.86,331.77,39.08,333.8,39.08ZM330,42.92c0,.62.38.94,1.13.94,1.41,0,4.94-2.1,4.94-3.25,0-.62-.38-.94-1.13-.94C333.66,39.67,330,41.7,330,42.92Z"/><line x1="369.79" y1="42.55" x2="369.79" y2="59.12" style="fill:none;stroke:#000;stroke-linejoin:bevel;stroke-width:0.46444934606552124px"/><path d="M373.89,39.08c1.65,0,2.72.73,2.72,2,0,1.87-2.28,3.37-4.54,3.37-1.35,0-2.44-.65-2.44-1.76C369.63,40.86,371.87,39.08,373.89,39.08Zm-3.8,3.84c0,.62.37.94,1.13.94,1.41,0,4.93-2.1,4.93-3.25,0-.62-.37-.94-1.13-.94C373.75,39.67,370.09,41.7,370.09,42.92Z"/><path d="M380.8,39.3a.94.94,0,0,1-.95.89,1,1,0,0,1-.91-.89.94.94,0,0,1,.91-.95A.93.93,0,0,1,380.8,39.3Z"/><line x1="406.94" y1="31.87" x2="417.47" y2="31.87" style="fill:none;stroke:#000;stroke-linejoin:bevel;stroke-width:0.7740822434425354px"/><line x1="408.96" y1="32.64" x2="408.96" y2="49.21" style="fill:none;stroke:#000;stroke-linejoin:bevel;stroke-width:0.46444934606552124px"/><path d="M408.8,32.72c0-1.78,2.52-3.45,4.52-3.45,1.33,0,2.26.67,2.26,1.73,0,1.74-2.52,3.44-4.56,3.44C409.77,34.44,408.8,33.81,408.8,32.72Z"/><line x1="432.8" y1="31.87" x2="443.32" y2="31.87" style="fill:none;stroke:#000;stroke-linejoin:bevel;stroke-width:0.7740822434425354px"/><line x1="432.8" y1="26.91" x2="443.32" y2="26.91" style="fill:none;stroke:#000;stroke-linejoin:bevel;stroke-width:0.7740822434425354px"/><line x1="434.81" y1="27.69" x2="434.81" y2="46.73" style="fill:none;stroke:#000;stroke-linejoin:bevel;stroke-width:0.46444934606552124px"/><path d="M434.66,27.77c0-1.79,2.51-3.45,4.51-3.45,1.33,0,2.26.67,2.26,1.72,0,1.75-2.51,3.45-4.55,3.45C435.63,29.49,434.66,28.86,434.66,27.77Z"/><path d="M445.67,24.44a1,1,0,0,1-.95.89,1,1,0,0,1-.91-.89.93.93,0,1,1,1.86,0Z"/><line x1="457.41" y1="31.87" x2="467.94" y2="31.87" style="fill:none;stroke:#000;stroke-linejoin:bevel;stroke-width:0.7740822434425354px"/><line x1="459.43" y1="30.16" x2="459.43" y2="46.73" style="fill:none;stroke:#000;stroke-linejoin:bevel;stroke-width:0.46444934606552124px"/><path d="M459.27,30.24c0-1.78,2.52-3.45,4.52-3.45,1.33,0,2.26.68,2.26,1.73,0,1.74-2.52,3.45-4.56,3.45C460.24,32,459.27,31.33,459.27,30.24Z"/><path d="M456.11,36.15v-4l-3,1.05V22.59h.49v4l3-1.07V36.15Zm-2.54-4.66,2.54-.91V27.25l-2.54.93Z"/><path d="M459.47,41.78c.83,0,.91,0,2.14-1,1-.77,1.55-1.24,1.72-1.42a4.79,4.79,0,0,0,1.31-3.27,7.08,7.08,0,0,0-1-3.23.83.83,0,0,1-.12-.38c0-.12,0-.18.08-.18.48,0,1.27,1.94,1.53,2.95a6.24,6.24,0,0,1,.2,1.59,4.64,4.64,0,0,1-1.13,3c-.74.88-1.55,1.67-2.26,2.54a15.31,15.31,0,0,0-2.18,4,.55.55,0,0,0,0,.18.39.39,0,0,0,0,.16s-.08,0-.26,0Z"/><line x1="470.11" y1="31.87" x2="480.64" y2="31.87" style="fill:none;stroke:#000;stroke-linejoin:bevel;stroke-width:0.7740822434425354px"/><line x1="472.12" y1="32.64" x2="472.12" y2="49.21" style="fill:none;stroke:#000;stroke-linejoin:bevel;stroke-width:0.46444934606552124px"/><path d="M472,32.72c0-1.78,2.51-3.45,4.52-3.45,1.32,0,2.26.67,2.26,1.73,0,1.74-2.52,3.44-4.56,3.44C472.94,34.44,472,33.81,472,32.72Z"/><path d="M483,29.39a.94.94,0,0,1-1,.89,1,1,0,0,1-.91-.89.93.93,0,1,1,1.86,0Z"/><line x1="496.58" y1="35.12" x2="496.58" y2="52.77" style="fill:none;stroke:#000;stroke-linejoin:bevel;stroke-width:0.46444934606552124px"/><path d="M496.43,35.2c0-1.79,2.51-3.45,4.52-3.45,1.32,0,2.26.67,2.26,1.72,0,1.75-2.52,3.45-4.56,3.45C497.4,36.92,496.43,36.29,496.43,35.2Z"/><path d="M494,27.53v2.83l1-.34v1.81l-1,.33v3.43l1-.33v1.8l-1,.34v3.11h-.49v-3l-1.9.63v3h-.5V38.31l-1,.34V36.84l1-.34V33.08l-1,.33v-1.8l1-.34V28.16h.5v3l1.9-.63v-3Zm-.49,4.77-1.9.64v3.43l1.9-.64Z"/><line x1="504.48" y1="31.87" x2="515" y2="31.87" style="fill:none;stroke:#000;stroke-linejoin:bevel;stroke-width:0.7740822434425354px"/><line x1="506.49" y1="32.64" x2="506.49" y2="51.53" style="fill:none;stroke:#000;stroke-linejoin:bevel;stroke-width:0.46444934606552124px"/><path d="M506.34,32.72c0-1.78,2.51-3.45,4.52-3.45,1.32,0,2.26.67,2.26,1.73,0,1.74-2.52,3.44-4.56,3.44C507.31,34.44,506.34,33.81,506.34,32.72Z"/><line x1="523.67" y1="31.87" x2="534.36" y2="31.87" style="fill:none;stroke:#000;stroke-linejoin:bevel;stroke-width:0.7740822434425354px"/><line x1="523.67" y1="26.91" x2="534.36" y2="26.91" style="fill:none;stroke:#000;stroke-linejoin:bevel;stroke-width:0.7740822434425354px"/><line x1="525.69" y1="25.21" x2="525.69" y2="46.73" style="fill:none;stroke:#000;stroke-linejoin:bevel;stroke-width:0.46444934606552124px"/><path d="M529.79,21.74c1.65,0,2.72.73,2.72,2,0,1.87-2.28,3.37-4.54,3.37-1.35,0-2.44-.65-2.44-1.76C525.53,23.52,527.77,21.74,529.79,21.74ZM526,25.59c0,.61.38.93,1.13.93,1.41,0,4.93-2.1,4.93-3.25,0-.62-.37-.93-1.13-.93C529.66,22.34,526,24.36,526,25.59Z"/><path d="M536.7,24.44a.94.94,0,0,1-1,.89,1,1,0,0,1-.91-.89.93.93,0,1,1,1.86,0Z"/><line x1="562.84" y1="31.87" x2="573.37" y2="31.87" style="fill:none;stroke:#000;stroke-linejoin:bevel;stroke-width:0.7740822434425354px"/><line x1="562.84" y1="26.91" x2="573.37" y2="26.91" style="fill:none;stroke:#000;stroke-linejoin:bevel;stroke-width:0.7740822434425354px"/><line x1="562.84" y1="21.96" x2="573.37" y2="21.96" style="fill:none;stroke:#000;stroke-linejoin:bevel;stroke-width:0.7740822434425354px"/><line x1="564.86" y1="22.73" x2="564.86" y2="46.73" style="fill:none;stroke:#000;stroke-linejoin:bevel;stroke-width:0.46444934606552124px"/><path d="M564.7,22.81c0-1.78,2.52-3.45,4.52-3.45,1.33,0,2.26.68,2.26,1.73,0,1.74-2.52,3.45-4.56,3.45C565.67,24.54,564.7,23.9,564.7,22.81Z"/><line x1="588.7" y1="31.87" x2="599.23" y2="31.87" style="fill:none;stroke:#000;stroke-linejoin:bevel;stroke-width:0.7740822434425354px"/><line x1="588.7" y1="26.91" x2="599.23" y2="26.91" style="fill:none;stroke:#000;stroke-linejoin:bevel;stroke-width:0.7740822434425354px"/><line x1="590.71" y1="27.69" x2="590.71" y2="46.73" style="fill:none;stroke:#000;stroke-linejoin:bevel;stroke-width:0.46444934606552124px"/><path d="M590.56,27.77c0-1.79,2.51-3.45,4.52-3.45,1.32,0,2.25.67,2.25,1.72,0,1.75-2.51,3.45-4.55,3.45C591.53,29.49,590.56,28.86,590.56,27.77Z"/><path d="M601.57,24.44a1,1,0,0,1-1,.89,1,1,0,0,1-.91-.89.93.93,0,1,1,1.86,0Z"/><line x1="613.16" y1="31.87" x2="623.69" y2="31.87" style="fill:none;stroke:#000;stroke-linejoin:bevel;stroke-width:0.7740822434425354px"/><line x1="615.17" y1="30.16" x2="615.17" y2="46.73" style="fill:none;stroke:#000;stroke-linejoin:bevel;stroke-width:0.46444934606552124px"/><path d="M615,30.24c0-1.78,2.51-3.45,4.52-3.45,1.32,0,2.26.68,2.26,1.73,0,1.74-2.52,3.45-4.56,3.45C616,32,615,31.33,615,30.24Z"/><path d="M611.86,36.15v-4l-3,1.05V22.59h.5v4l3-1.07V36.15Zm-2.54-4.66,2.54-.91V27.25l-2.54.93Z"/><path d="M615.21,41.78c.84,0,.92,0,2.15-1,1-.77,1.54-1.24,1.72-1.42a4.83,4.83,0,0,0,1.31-3.27,7.2,7.2,0,0,0-1-3.23.83.83,0,0,1-.12-.38c0-.12,0-.18.08-.18.47,0,1.27,1.94,1.52,2.95a6.24,6.24,0,0,1,.2,1.59,4.59,4.59,0,0,1-1.13,3c-.73.88-1.54,1.67-2.26,2.54a15.61,15.61,0,0,0-2.18,4,.55.55,0,0,0,0,.18.39.39,0,0,0,0,.16s-.08,0-.26,0Z"/><line x1="625.85" y1="31.87" x2="636.38" y2="31.87" style="fill:none;stroke:#000;stroke-linejoin:bevel;stroke-width:0.7740822434425354px"/><line x1="627.87" y1="32.64" x2="627.87" y2="49.21" style="fill:none;stroke:#000;stroke-linejoin:bevel;stroke-width:0.46444934606552124px"/><path d="M627.71,32.72c0-1.78,2.52-3.45,4.52-3.45,1.33,0,2.26.67,2.26,1.73,0,1.74-2.52,3.44-4.56,3.44C628.68,34.44,627.71,33.81,627.71,32.72Z"/><path d="M638.73,29.39a.94.94,0,0,1-1,.89,1,1,0,0,1-.91-.89.94.94,0,1,1,1.87,0Z"/><line x1="652.33" y1="35.12" x2="652.33" y2="52.77" style="fill:none;stroke:#000;stroke-linejoin:bevel;stroke-width:0.46444934606552124px"/><path d="M652.17,35.2c0-1.79,2.52-3.45,4.52-3.45,1.33,0,2.26.67,2.26,1.72,0,1.75-2.52,3.45-4.56,3.45C653.14,36.92,652.17,36.29,652.17,35.2Z"/><path d="M649.75,27.53v2.83l1-.34v1.81l-1,.33v3.43l1-.33v1.8l-1,.34v3.11h-.5v-3l-1.9.63v3h-.49V38.31l-1,.34V36.84l1-.34V33.08l-1,.33v-1.8l1-.34V28.16h.49v3l1.9-.63v-3Zm-.5,4.77-1.9.64v3.43l1.9-.64Z"/><line x1="660.22" y1="31.87" x2="670.75" y2="31.87" style="fill:none;stroke:#000;stroke-linejoin:bevel;stroke-width:0.7740822434425354px"/><line x1="662.24" y1="32.64" x2="662.24" y2="51.53" style="fill:none;stroke:#000;stroke-linejoin:bevel;stroke-width:0.46444934606552124px"/><path d="M662.08,32.72c0-1.78,2.52-3.45,4.52-3.45,1.33,0,2.26.67,2.26,1.73,0,1.74-2.52,3.44-4.56,3.44C663.05,34.44,662.08,33.81,662.08,32.72Z"/><line x1="678.8" y1="31.87" x2="693.04" y2="31.87" style="fill:none;stroke:#000;stroke-linejoin:bevel;stroke-width:0.7740822434425354px"/><path d="M686,29.19c2.2,0,4.51,1.15,4.51,2.68s-1.9,2.67-4.73,2.67c-2.54,0-4.5-1-4.5-2.67S683.6,29.19,686,29.19Zm1.92,2.12a2.53,2.53,0,0,0-2.58-1.68c-1.27,0-1.9.51-1.9,1.52a3,3,0,0,0,2.6,3c1.14,0,2.12-.12,2.33-1.23A3.57,3.57,0,0,0,687.92,31.31Z"/><rect x="-39.55" y="-37.49" width="774.24" height="46.75" style="fill:#fff"/><rect x="-39.55" y="-37.49" width="41.18" height="168.29" style="fill:#fff"/><rect x="734.69" y="-37.49" width="13.47" height="168.29" style="fill:#fff"/><rect x="-39.55" y="73.67" width="774.24" height="57.13" style="fill:#fff"/></g></svg>