<svg id="Layer_1" data-name="Layer 1" xmlns="http://www.w3.org/2000/svg" viewBox="0 0 750 83"><title>sibeliusViolinConcerto</title><line x1="123.16" y1="35.51" x2="123.16" y2="55.17" style="fill:none;stroke:#000;stroke-linejoin:bevel;stroke-width:0.7740821242332458px"/><line x1="201.5" y1="35.51" x2="201.5" y2="55.17" style="fill:none;stroke:#000;stroke-linejoin:bevel;stroke-width:0.7740821242332458px"/><line x1="267.3" y1="35.51" x2="267.3" y2="55.17" style="fill:none;stroke:#000;stroke-linejoin:bevel;stroke-width:0.7740821242332458px"/><line x1="358.95" y1="35.51" x2="358.95" y2="55.17" style="fill:none;stroke:#000;stroke-linejoin:bevel;stroke-width:0.7740821242332458px"/><line x1="423.97" y1="35.51" x2="423.97" y2="55.17" style="fill:none;stroke:#000;stroke-linejoin:bevel;stroke-width:0.7740821242332458px"/><line x1="514.85" y1="35.51" x2="514.85" y2="55.17" style="fill:none;stroke:#000;stroke-linejoin:bevel;stroke-width:0.7740821242332458px"/><line x1="579.87" y1="35.51" x2="579.87" y2="55.17" style="fill:none;stroke:#000;stroke-linejoin:bevel;stroke-width:0.7740821242332458px"/><line x1="670.59" y1="35.51" x2="670.59" y2="55.17" style="fill:none;stroke:#000;stroke-linejoin:bevel;stroke-width:0.7740821242332458px"/><line x1="727.1" y1="35.51" x2="727.1" y2="55.17" style="fill:none;stroke:#000;stroke-linejoin:bevel;stroke-width:0.7740821242332458px"/><line x1="730.51" y1="35.51" x2="730.51" y2="55.17" style="fill:none;stroke:#000;stroke-linejoin:bevel;stroke-width:2.477062940597534px"/><path d="M94.83,29.32c7.74-5.73,31.12-5.73,38.86,0" style="fill:none;stroke:#000;stroke-linejoin:bevel;stroke-width:0.3096328675746918px"/><path d="M94.83,29.32c7.74-6.5,31.12-6.5,38.86,0C126,24.37,102.57,24.37,94.83,29.32Z" style="fill-rule:evenodd"/><path d="M94.83,29.32c7.74-6.5,31.12-6.5,38.86,0C126,24.37,102.57,24.37,94.83,29.32Z" style="fill:none;stroke:#000;stroke-linejoin:bevel;stroke-width:0.1548164337873459px"/><path d="M173.32,36.75c7.74-5.73,31-5.73,38.71,0" style="fill:none;stroke:#000;stroke-linejoin:bevel;stroke-width:0.3096328675746918px"/><path d="M173.32,36.75c7.74-6.5,31-6.5,38.71,0C204.29,31.8,181.06,31.8,173.32,36.75Z" style="fill-rule:evenodd"/><path d="M173.32,36.75c7.74-6.5,31-6.5,38.71,0C204.29,31.8,181.06,31.8,173.32,36.75Z" style="fill:none;stroke:#000;stroke-linejoin:bevel;stroke-width:0.1548164337873459px"/><path d="M330.62,36.75c7.74-5.73,31.11-5.73,38.85,0" style="fill:none;stroke:#000;stroke-linejoin:bevel;stroke-width:0.3096328675746918px"/><path d="M330.62,36.75c7.74-6.5,31.11-6.5,38.85,0C361.73,31.8,338.36,31.8,330.62,36.75Z" style="fill-rule:evenodd"/><path d="M330.62,36.75c7.74-6.5,31.11-6.5,38.85,0C361.73,31.8,338.36,31.8,330.62,36.75Z" style="fill:none;stroke:#000;stroke-linejoin:bevel;stroke-width:0.1548164337873459px"/><text transform="translate(41.11 40.2)" style="font-size:19.9713191986084px;font-family:OpusStd, Opus Std">4</text><text transform="translate(41.11 50.24)" style="font-size:19.9713191986084px;font-family:OpusStd, Opus Std">4</text><line x1="10.92" y1="55.17" x2="731.75" y2="55.17" style="fill:none;stroke:#000;stroke-linejoin:bevel;stroke-width:0.46444928646087646px"/><line x1="10.92" y1="50.22" x2="731.75" y2="50.22" style="fill:none;stroke:#000;stroke-linejoin:bevel;stroke-width:0.46444928646087646px"/><line x1="10.92" y1="45.42" x2="731.75" y2="45.42" style="fill:none;stroke:#000;stroke-linejoin:bevel;stroke-width:0.46444928646087646px"/><line x1="10.92" y1="40.47" x2="731.75" y2="40.47" style="fill:none;stroke:#000;stroke-linejoin:bevel;stroke-width:0.46444928646087646px"/><line x1="10.92" y1="35.51" x2="731.75" y2="35.51" style="fill:none;stroke:#000;stroke-linejoin:bevel;stroke-width:0.46444928646087646px"/><text transform="translate(14.64 50.22)" style="font-size:19.816503524780273px;font-family:OpusStd, Opus Std">&amp;</text><text transform="translate(31.97 45.42)" style="font-size:19.816503524780273px;font-family:OpusStd, Opus Std">b</text><rect x="300.89" y="48.98" width="17.34" height="2.48"/><rect x="300.89" y="52.7" width="17.34" height="2.48"/><path d="M410,26.07c8.51-9,52.94-9.44,61.61-.77" style="fill:none;stroke:#000;stroke-linejoin:bevel;stroke-width:0.3096328675746918px"/><path d="M410,26.07c8.51-9.75,52.94-10.22,61.61-.77C463,17.4,418.55,17.86,410,26.07Z" style="fill-rule:evenodd"/><path d="M410,26.07c8.51-9.75,52.94-10.22,61.61-.77C463,17.4,418.55,17.86,410,26.07Z" style="fill:none;stroke:#000;stroke-linejoin:bevel;stroke-width:0.1548164337873459px"/><polygon points="493.64 47.74 503.55 46.51 503.55 44.18 493.64 45.42 493.64 47.74" style="fill-rule:evenodd"/><polygon points="493.64 51.46 503.55 50.22 503.55 47.74 493.64 48.98 493.64 51.46" style="fill-rule:evenodd"/><path d="M526.77,18.64c5.57-7.28,31.12-8.83,37.62-2.48" style="fill:none;stroke:#000;stroke-linejoin:bevel;stroke-width:0.3096328675746918px"/><path d="M526.77,18.64c5.57-8,31.12-9.6,37.62-2.48C557.89,10.59,532.34,12.14,526.77,18.64Z" style="fill-rule:evenodd"/><path d="M526.77,18.64c5.57-8,31.12-9.6,37.62-2.48C557.89,10.59,532.34,12.14,526.77,18.64Z" style="fill:none;stroke:#000;stroke-linejoin:bevel;stroke-width:0.1548164337873459px"/><polygon points="649.38 47.74 659.29 46.51 659.29 44.18 649.38 45.42 649.38 47.74" style="fill-rule:evenodd"/><polygon points="649.38 51.46 659.29 50.22 659.29 47.74 649.38 48.98 649.38 51.46" style="fill-rule:evenodd"/><path d="M95,26.07c8.66-8.52,55-8,63.78,0" style="fill:none;stroke:#000;stroke-linejoin:bevel;stroke-width:0.3096328675746918px"/><path d="M95,26.07c8.66-9.29,55-8.83,63.78,0C150,18.79,103.65,18.33,95,26.07Z" style="fill-rule:evenodd"/><path d="M95,26.07c8.66-9.29,55-8.83,63.78,0C150,18.79,103.65,18.33,95,26.07Z" style="fill:none;stroke:#000;stroke-linejoin:bevel;stroke-width:0.1548164337873459px"/><path d="M253.05,33c9.14-8.67,58.52-8.67,67.66,0" style="fill:none;stroke:#000;stroke-linejoin:bevel;stroke-width:0.3096328675746918px"/><path d="M253.05,33c9.14-9.45,58.52-9.45,67.66,0C311.57,25.14,262.19,25.14,253.05,33Z" style="fill-rule:evenodd"/><path d="M253.05,33c9.14-9.45,58.52-9.45,67.66,0C311.57,25.14,262.19,25.14,253.05,33Z" style="fill:none;stroke:#000;stroke-linejoin:bevel;stroke-width:0.1548164337873459px"/><text transform="translate(304.98 65.03)" style="font-size:10.063068389892578px;font-family:OpusTextStd, Opus Text Std">3</text><path d="M591.79,21.12c4.49-5.42,19.51-4.19,22.91,2" style="fill:none;stroke:#000;stroke-linejoin:bevel;stroke-width:0.3096328675746918px"/><path d="M591.79,21.12c4.49-6.2,19.51-5,22.91,2C611.3,17.71,596.28,16.47,591.79,21.12Z" style="fill-rule:evenodd"/><path d="M591.79,21.12c4.49-6.2,19.51-5,22.91,2C611.3,17.71,596.28,16.47,591.79,21.12Z" style="fill:none;stroke:#000;stroke-linejoin:bevel;stroke-width:0.1548164337873459px"/><text transform="translate(56.75 45.42)" style="font-size:19.816503524780273px;font-family:OpusStd, Opus Std">Ó</text><line x1="90.96" y1="33.81" x2="90.96" y2="50.22" style="fill:none;stroke:#000;stroke-linejoin:bevel;stroke-width:0.46444928646087646px"/><text transform="translate(90.81 33.04)" style="font-size:19.816503524780273px;font-family:OpusStd, Opus Std">˙</text><line x1="131.06" y1="33.81" x2="131.06" y2="50.22" style="fill:none;stroke:#000;stroke-linejoin:bevel;stroke-width:0.46444928646087646px"/><text transform="translate(130.9 33.04)" style="font-size:19.816503524780273px;font-family:OpusStd, Opus Std">œ</text><text transform="translate(140.97 33.04)" style="font-size:19.816503524780273px;font-family:OpusSpecialStd, Opus Special Std">™</text><line x1="154.28" y1="30.56" x2="164.81" y2="30.56" style="fill:none;stroke:#000;stroke-linejoin:bevel;stroke-width:0.7740821242332458px"/><line x1="156.29" y1="31.33" x2="156.29" y2="47.74" style="fill:none;stroke:#000;stroke-linejoin:bevel;stroke-width:0.46444928646087646px"/><text transform="translate(156.14 30.56)" style="font-size:19.816503524780273px;font-family:OpusStd, Opus Std">œ</text><text transform="translate(156.14 42.94)" style="font-size:19.816503524780273px;font-family:OpusStd, Opus Std">J</text><line x1="169.45" y1="41.24" x2="169.45" y2="57.65" style="fill:none;stroke:#000;stroke-linejoin:bevel;stroke-width:0.46444928646087646px"/><text transform="translate(169.3 40.47)" style="font-size:19.816503524780273px;font-family:OpusStd, Opus Std">˙</text><line x1="209.39" y1="41.24" x2="209.39" y2="57.65" style="fill:none;stroke:#000;stroke-linejoin:bevel;stroke-width:0.46444928646087646px"/><text transform="translate(209.24 40.47)" style="font-size:19.816503524780273px;font-family:OpusStd, Opus Std">˙</text><text transform="translate(219.46 37.99)" style="font-size:19.816503524780273px;font-family:OpusSpecialStd, Opus Special Std">™</text><line x1="249.03" y1="41.24" x2="249.03" y2="57.65" style="fill:none;stroke:#000;stroke-linejoin:bevel;stroke-width:0.46444928646087646px"/><text transform="translate(248.87 40.47)" style="font-size:19.816503524780273px;font-family:OpusStd, Opus Std">œ</text><line x1="275.19" y1="36.29" x2="275.19" y2="52.7" style="fill:none;stroke:#000;stroke-linejoin:bevel;stroke-width:0.46444928646087646px"/><text transform="translate(275.04 35.51)" style="font-size:19.816503524780273px;font-family:OpusStd, Opus Std">œ</text><text transform="translate(285.1 33.04)" style="font-size:19.816503524780273px;font-family:OpusSpecialStd, Opus Special Std">™</text><line x1="300.89" y1="38.76" x2="300.89" y2="55.02" style="fill:none;stroke:#000;stroke-linejoin:bevel;stroke-width:0.46444928646087646px"/><text transform="translate(300.74 37.99)" style="font-size:19.816503524780273px;font-family:OpusStd, Opus Std">œ</text><line x1="309.56" y1="36.29" x2="309.56" y2="55.02" style="fill:none;stroke:#000;stroke-linejoin:bevel;stroke-width:0.46444928646087646px"/><text transform="translate(309.41 35.51)" style="font-size:19.816503524780273px;font-family:OpusStd, Opus Std">œ</text><line x1="318.23" y1="38.76" x2="318.23" y2="55.02" style="fill:none;stroke:#000;stroke-linejoin:bevel;stroke-width:0.46444928646087646px"/><text transform="translate(318.08 37.99)" style="font-size:19.816503524780273px;font-family:OpusStd, Opus Std">œ</text><line x1="326.75" y1="41.24" x2="326.75" y2="57.65" style="fill:none;stroke:#000;stroke-linejoin:bevel;stroke-width:0.46444928646087646px"/><text transform="translate(326.59 40.47)" style="font-size:19.816503524780273px;font-family:OpusStd, Opus Std">˙</text><line x1="366.84" y1="41.24" x2="366.84" y2="57.65" style="fill:none;stroke:#000;stroke-linejoin:bevel;stroke-width:0.46444928646087646px"/><text transform="translate(366.69 40.47)" style="font-size:19.816503524780273px;font-family:OpusStd, Opus Std">˙</text><text transform="translate(376.91 37.99)" style="font-size:19.816503524780273px;font-family:OpusSpecialStd, Opus Special Std">™</text><line x1="404" y1="30.56" x2="414.53" y2="30.56" style="fill:none;stroke:#000;stroke-linejoin:bevel;stroke-width:0.7740821242332458px"/><line x1="406.01" y1="31.33" x2="406.01" y2="47.74" style="fill:none;stroke:#000;stroke-linejoin:bevel;stroke-width:0.46444928646087646px"/><text transform="translate(405.86 30.56)" style="font-size:19.816503524780273px;font-family:OpusStd, Opus Std">œ</text><line x1="429.85" y1="30.56" x2="440.38" y2="30.56" style="fill:none;stroke:#000;stroke-linejoin:bevel;stroke-width:0.7740821242332458px"/><line x1="429.85" y1="25.6" x2="440.38" y2="25.6" style="fill:none;stroke:#000;stroke-linejoin:bevel;stroke-width:0.7740821242332458px"/><line x1="431.87" y1="26.38" x2="431.87" y2="45.42" style="fill:none;stroke:#000;stroke-linejoin:bevel;stroke-width:0.46444928646087646px"/><text transform="translate(431.71 25.6)" style="font-size:19.816503524780273px;font-family:OpusStd, Opus Std">œ</text><text transform="translate(441.77 23.13)" style="font-size:19.816503524780273px;font-family:OpusSpecialStd, Opus Special Std">™</text><line x1="454.47" y1="30.56" x2="465" y2="30.56" style="fill:none;stroke:#000;stroke-linejoin:bevel;stroke-width:0.7740821242332458px"/><line x1="456.48" y1="28.86" x2="456.48" y2="45.42" style="fill:none;stroke:#000;stroke-linejoin:bevel;stroke-width:0.46444928646087646px"/><text transform="translate(456.33 28.08)" style="font-size:19.816503524780273px;font-family:OpusStd, Opus Std">œ</text><text transform="translate(450.13 28.08)" style="font-size:19.816503524780273px;font-family:OpusStd, Opus Std">n</text><text transform="translate(456.33 40.47)" style="font-size:19.816503524780273px;font-family:OpusStd, Opus Std">J</text><line x1="467.16" y1="30.56" x2="477.69" y2="30.56" style="fill:none;stroke:#000;stroke-linejoin:bevel;stroke-width:0.7740821242332458px"/><line x1="469.18" y1="31.33" x2="469.18" y2="47.74" style="fill:none;stroke:#000;stroke-linejoin:bevel;stroke-width:0.46444928646087646px"/><text transform="translate(469.02 30.56)" style="font-size:19.816503524780273px;font-family:OpusStd, Opus Std">œ</text><text transform="translate(479.08 28.08)" style="font-size:19.816503524780273px;font-family:OpusSpecialStd, Opus Special Std">™</text><line x1="493.64" y1="33.81" x2="493.64" y2="51.3" style="fill:none;stroke:#000;stroke-linejoin:bevel;stroke-width:0.46444928646087646px"/><text transform="translate(493.48 33.04)" style="font-size:19.816503524780273px;font-family:OpusStd, Opus Std">œ</text><text transform="translate(487.13 33.04)" style="font-size:19.816503524780273px;font-family:OpusStd, Opus Std">#</text><line x1="501.53" y1="30.56" x2="512.06" y2="30.56" style="fill:none;stroke:#000;stroke-linejoin:bevel;stroke-width:0.7740821242332458px"/><line x1="503.55" y1="31.33" x2="503.55" y2="50.07" style="fill:none;stroke:#000;stroke-linejoin:bevel;stroke-width:0.46444928646087646px"/><text transform="translate(503.39 30.56)" style="font-size:19.816503524780273px;font-family:OpusStd, Opus Std">œ</text><line x1="520.73" y1="30.56" x2="531.41" y2="30.56" style="fill:none;stroke:#000;stroke-linejoin:bevel;stroke-width:0.7740821242332458px"/><line x1="520.73" y1="25.6" x2="531.41" y2="25.6" style="fill:none;stroke:#000;stroke-linejoin:bevel;stroke-width:0.7740821242332458px"/><line x1="522.74" y1="23.9" x2="522.74" y2="45.42" style="fill:none;stroke:#000;stroke-linejoin:bevel;stroke-width:0.46444928646087646px"/><text transform="translate(522.59 23.13)" style="font-size:19.816503524780273px;font-family:OpusStd, Opus Std">˙</text><text transform="translate(532.81 23.13)" style="font-size:19.816503524780273px;font-family:OpusSpecialStd, Opus Special Std">™</text><line x1="559.9" y1="30.56" x2="570.43" y2="30.56" style="fill:none;stroke:#000;stroke-linejoin:bevel;stroke-width:0.7740821242332458px"/><line x1="559.9" y1="25.6" x2="570.43" y2="25.6" style="fill:none;stroke:#000;stroke-linejoin:bevel;stroke-width:0.7740821242332458px"/><line x1="559.9" y1="20.65" x2="570.43" y2="20.65" style="fill:none;stroke:#000;stroke-linejoin:bevel;stroke-width:0.7740821242332458px"/><line x1="561.91" y1="21.42" x2="561.91" y2="45.42" style="fill:none;stroke:#000;stroke-linejoin:bevel;stroke-width:0.46444928646087646px"/><text transform="translate(561.76 20.65)" style="font-size:19.816503524780273px;font-family:OpusStd, Opus Std">œ</text><line x1="585.75" y1="30.56" x2="596.28" y2="30.56" style="fill:none;stroke:#000;stroke-linejoin:bevel;stroke-width:0.7740821242332458px"/><line x1="585.75" y1="25.6" x2="596.28" y2="25.6" style="fill:none;stroke:#000;stroke-linejoin:bevel;stroke-width:0.7740821242332458px"/><line x1="587.77" y1="26.38" x2="587.77" y2="45.42" style="fill:none;stroke:#000;stroke-linejoin:bevel;stroke-width:0.46444928646087646px"/><text transform="translate(587.61 25.6)" style="font-size:19.816503524780273px;font-family:OpusStd, Opus Std">œ</text><text transform="translate(597.67 23.13)" style="font-size:19.816503524780273px;font-family:OpusSpecialStd, Opus Special Std">™</text><line x1="610.21" y1="30.56" x2="620.74" y2="30.56" style="fill:none;stroke:#000;stroke-linejoin:bevel;stroke-width:0.7740821242332458px"/><line x1="612.23" y1="28.86" x2="612.23" y2="45.42" style="fill:none;stroke:#000;stroke-linejoin:bevel;stroke-width:0.46444928646087646px"/><text transform="translate(612.07 28.08)" style="font-size:19.816503524780273px;font-family:OpusStd, Opus Std">œ</text><text transform="translate(605.88 28.08)" style="font-size:19.816503524780273px;font-family:OpusStd, Opus Std">n</text><text transform="translate(612.07 40.47)" style="font-size:19.816503524780273px;font-family:OpusStd, Opus Std">J</text><line x1="622.91" y1="30.56" x2="633.44" y2="30.56" style="fill:none;stroke:#000;stroke-linejoin:bevel;stroke-width:0.7740821242332458px"/><line x1="624.92" y1="31.33" x2="624.92" y2="47.74" style="fill:none;stroke:#000;stroke-linejoin:bevel;stroke-width:0.46444928646087646px"/><text transform="translate(624.77 30.56)" style="font-size:19.816503524780273px;font-family:OpusStd, Opus Std">œ</text><text transform="translate(634.83 28.08)" style="font-size:19.816503524780273px;font-family:OpusSpecialStd, Opus Special Std">™</text><line x1="649.38" y1="33.81" x2="649.38" y2="51.3" style="fill:none;stroke:#000;stroke-linejoin:bevel;stroke-width:0.46444928646087646px"/><text transform="translate(649.23 33.04)" style="font-size:19.816503524780273px;font-family:OpusStd, Opus Std">œ</text><text transform="translate(642.88 33.04)" style="font-size:19.816503524780273px;font-family:OpusStd, Opus Std">#</text><line x1="657.28" y1="30.56" x2="667.81" y2="30.56" style="fill:none;stroke:#000;stroke-linejoin:bevel;stroke-width:0.7740821242332458px"/><line x1="659.29" y1="31.33" x2="659.29" y2="50.07" style="fill:none;stroke:#000;stroke-linejoin:bevel;stroke-width:0.46444928646087646px"/><text transform="translate(659.14 30.56)" style="font-size:19.816503524780273px;font-family:OpusStd, Opus Std">œ</text><line x1="675.86" y1="30.56" x2="690.1" y2="30.56" style="fill:none;stroke:#000;stroke-linejoin:bevel;stroke-width:0.7740821242332458px"/><text transform="translate(678.33 30.56)" style="font-size:19.816503524780273px;font-family:OpusStd, Opus Std">w</text></svg>