<?xml version="1.0" encoding="utf-8"?>
<!-- Generator: Adobe Illustrator 22.1.0, SVG Export Plug-In . SVG Version: 6.00 Build 0)  -->
<svg version="1.1" id="Layer_1" xmlns="http://www.w3.org/2000/svg" xmlns:xlink="http://www.w3.org/1999/xlink" x="0px" y="0px"
	 viewBox="0 0 750 83" style="enable-background:new 0 0 750 83;" xml:space="preserve">
<style type="text/css">
	.st0{clip-path:url(#SVGID_2_);}
	.st1{fill:none;stroke:#000000;stroke-width:0.7741;stroke-linejoin:bevel;}
	.st2{fill:none;stroke:#000000;stroke-width:2.4771;stroke-linejoin:bevel;}
	.st3{fill:none;stroke:#000000;stroke-width:0.3096;stroke-linejoin:bevel;}
	.st4{fill:none;stroke:#000000;stroke-width:0.1548;stroke-linejoin:bevel;}
	.st5{fill:none;stroke:#000000;stroke-width:0.4644;stroke-linejoin:bevel;}
	.st6{fill:#FFFFFF;}
</style>
<title>sibeliusViolinConcerto</title>
<g>
	<defs>
		<rect id="SVGID_1_" x="2" y="9.5" width="746" height="64"/>
	</defs>
	<clipPath id="SVGID_2_">
		<use xlink:href="#SVGID_1_"  style="overflow:visible;"/>
	</clipPath>
	<g class="st0">
		<line class="st1" x1="126.1" y1="36.8" x2="126.1" y2="56.6"/>
		<line class="st1" x1="204.4" y1="36.8" x2="204.4" y2="56.6"/>
		<line class="st1" x1="270.2" y1="36.8" x2="270.2" y2="56.6"/>
		<line class="st1" x1="361.9" y1="36.8" x2="361.9" y2="56.6"/>
		<line class="st1" x1="426.9" y1="36.8" x2="426.9" y2="56.6"/>
		<line class="st1" x1="517.8" y1="36.8" x2="517.8" y2="56.6"/>
		<line class="st1" x1="582.8" y1="36.8" x2="582.8" y2="56.6"/>
		<line class="st1" x1="673.5" y1="36.8" x2="673.5" y2="56.6"/>
		<line class="st1" x1="730" y1="36.8" x2="730" y2="56.6"/>
		<line class="st2" x1="733.5" y1="36.8" x2="733.5" y2="56.6"/>
		<path class="st3" d="M97.8,30.6c7.8-5.7,31.1-5.7,38.9,0"/>
		<path d="M97.8,30.6c7.8-6.5,31.1-6.5,38.9,0C128.9,25.7,105.5,25.7,97.8,30.6z"/>
		<path class="st4" d="M97.8,30.6c7.8-6.5,31.1-6.5,38.9,0C128.9,25.7,105.5,25.7,97.8,30.6z"/>
		<path class="st3" d="M176.3,38.1c7.7-5.7,31-5.7,38.7,0"/>
		<path d="M176.3,38.1c7.7-6.5,31-6.5,38.7,0C207.2,33.1,184,33.1,176.3,38.1z"/>
		<path class="st4" d="M176.3,38.1c7.7-6.5,31-6.5,38.7,0C207.2,33.1,184,33.1,176.3,38.1z"/>
		<path class="st3" d="M333.6,38.1c7.7-5.7,31.1-5.7,38.9,0"/>
		<path d="M333.6,38.1c7.7-6.5,31.1-6.5,38.9,0C364.7,33.1,341.3,33.1,333.6,38.1z"/>
		<path class="st4" d="M333.6,38.1c7.7-6.5,31.1-6.5,38.9,0C364.7,33.1,341.3,33.1,333.6,38.1z"/>
		<path d="M50.6,43.9v0.5c0,0.1,0,0.3,0,0.4c0,0.5,0.2,0.6,1.1,0.7l0.1,0.6h-4.9v-0.6c0.6,0,1-0.2,1.1-0.4c0.1-0.4,0.1-0.8,0.1-1.2
			h-4v-0.8c1.4-1.9,2.2-4.1,2.5-6.4H50c-0.4,1.2-1.1,2.4-2.1,3.2c-1,0.9-1.8,2-2.5,3.1h2.7v-2.3l2.5-2.2v4.5h1.3v0.8H50.6z"/>
		<path d="M50.6,54v0.5c0,0.1,0,0.3,0,0.4c0,0.5,0.2,0.6,1.1,0.7l0.1,0.6h-4.9v-0.6c0.6,0,1-0.2,1.1-0.4c0.1-0.4,0.1-0.8,0.1-1.2h-4
			v-0.8c1.4-1.9,2.2-4.1,2.5-6.4H50c-0.4,1.2-1.1,2.3-2.1,3.2c-1,0.9-1.8,2-2.5,3.1h2.7v-2.3l2.5-2.2v4.5h1.3V54H50.6z"/>
		<line class="st5" x1="13.9" y1="56.6" x2="734.7" y2="56.6"/>
		<line class="st5" x1="13.9" y1="51.7" x2="734.7" y2="51.7"/>
		<line class="st5" x1="13.9" y1="46.7" x2="734.7" y2="46.7"/>
		<line class="st5" x1="13.9" y1="41.8" x2="734.7" y2="41.8"/>
		<line class="st5" x1="13.9" y1="36.8" x2="734.7" y2="36.8"/>
		<path d="M25.7,56.5c-4.2,0-8.1-3.1-8.1-6.9c0-3.2,2.3-6.7,6.8-10.5C24.1,38,24,36.8,24,35.5c0-3.5,1.2-6.8,3.2-8.4
			c1.6,2,2.6,4.5,2.7,7.1c0,2.9-1.4,5.6-4.3,8.1l0.9,4.2l0.8-0.1c2.6,0,4.7,2,4.7,4.6c0,0,0,0,0,0.1c0,1.9-1.5,3.8-3.6,4.8
			c0-0.1,0.9,3.8,0.9,4.3c0,2.5-2.3,4.2-4.9,4.2c-1.9,0.1-3.5-1.3-3.6-3.2c0-0.1,0-0.1,0-0.2c-0.1-1.3,0.9-2.5,2.3-2.6
			c0.1,0,0.1,0,0.2,0c1.3,0.1,2.3,1.2,2.3,2.6c0,1.4-1.1,2.3-2.7,2.5c0.6,0.3,1.2,0.5,1.9,0.5c2.1,0,4.1-1.6,4.1-3.6
			c0-0.2,0-0.4-0.1-0.6L28,56C27.3,56.3,26.5,56.5,25.7,56.5z M23.5,51.3c0,1.1,0.7,2,1.6,2.5c-1.7-0.1-3-1.5-3-3.1
			c0.2-2.1,1.7-3.8,3.8-4.1l-0.8-4c-3.7,2.8-5.7,5.5-5.7,8.1c0,2.9,2.8,5.3,6,5.3c0.8,0,1.7-0.2,2.4-0.5l-1.4-6.8
			C24.8,48.9,23.5,49.9,23.5,51.3z M27.5,29.9c-1.6,0-2.9,3.7-2.9,7c0,0.6,0,1.3,0.2,1.9c2.7-2.4,4.1-4.5,4.1-6.5
			c0-0.9-0.4-1.8-1-2.4C27.7,30,27.6,29.9,27.5,29.9L27.5,29.9z M30.3,51.8c0.1-1.7-1.2-3.1-2.9-3.3h-0.5l1.4,6.6
			C29.5,54.4,30.2,53.2,30.3,51.8z"/>
		<path d="M34.9,38.4h0.6l-0.1,6.3c0.4-0.7,1.1-1,1.8-1c1.1-0.1,2.1,0.8,2.2,1.9c0,0,0,0,0,0c-0.2,1.1-0.8,2.1-1.8,2.7l-2.8,2.1
			V38.4z M35.5,45.3c-0.1,0.8-0.1,1.4-0.1,1.9c0,0.7,0,1.3,0.1,2c1-0.7,2.4-2.6,2.4-3.7c0-0.6-0.5-1.1-1-1.1c0,0,0,0-0.1,0
			C36.2,44.5,35.7,44.8,35.5,45.3z"/>
		<rect x="303.8" y="50.5" width="17.3" height="2.5"/>
		<rect x="303.8" y="54.2" width="17.3" height="2.5"/>
		<path class="st3" d="M413,27.4c8.5-9,53-9.4,61.6-0.8"/>
		<path d="M413,27.4c8.5-9.8,53-10.2,61.6-0.8C465.9,18.7,421.5,19.2,413,27.4z"/>
		<path class="st4" d="M413,27.4c8.5-9.8,53-10.2,61.6-0.8C465.9,18.7,421.5,19.2,413,27.4z"/>
		<polygon points="496.6,49.2 506.5,48 506.5,45.5 496.6,46.7 		"/>
		<polygon points="496.6,52.9 506.5,51.7 506.5,49.2 496.6,50.5 		"/>
		<path class="st3" d="M529.7,20c5.6-7.3,31.1-8.8,37.6-2.5"/>
		<path d="M529.7,20c5.6-8,31.1-9.6,37.6-2.5C560.8,11.9,535.3,13.4,529.7,20z"/>
		<path class="st4" d="M529.7,20c5.6-8,31.1-9.6,37.6-2.5C560.8,11.9,535.3,13.4,529.7,20z"/>
		<polygon points="652.3,49.2 662.2,48 662.2,45.5 652.3,46.7 		"/>
		<polygon points="652.3,52.9 662.2,51.7 662.2,49.2 652.3,50.5 		"/>
		<path class="st3" d="M97.9,27.4c8.7-8.5,55-8,63.8,0"/>
		<path d="M97.9,27.4c8.7-9.3,55-8.8,63.8,0C152.9,20.1,106.6,19.6,97.9,27.4z"/>
		<path class="st4" d="M97.9,27.4c8.7-9.3,55-8.8,63.8,0C152.9,20.1,106.6,19.6,97.9,27.4z"/>
		<path class="st3" d="M256,34.3c9.1-8.7,58.5-8.7,67.6,0"/>
		<path d="M256,34.3c9.1-9.4,58.5-9.4,67.6,0C314.5,26.5,265.1,26.5,256,34.3z"/>
		<path class="st4" d="M256,34.3c9.1-9.4,58.5-9.4,67.6,0C314.5,26.5,265.1,26.5,256,34.3z"/>
		<path d="M313.9,61c0,0.9-0.6,1.6-1.4,1.9V63c0.6,0.1,1,0.6,1,1.2c0,1.5-1.3,2.3-3,2.3c-1.2,0-2.1-0.4-2.1-1.2
			c0-0.6,0.5-1.1,1.1-1.1c0,0,0,0,0,0c0.3,0,0.6,0.2,0.7,0.5c0,0,0,0,0,0.1c-0.1,0.4-0.3,0.7-0.6,1c0.2,0.2,0.6,0.4,0.9,0.3
			c1,0,1.5-0.6,1.5-1.8c0-0.6-0.3-1-0.9-1h-0.4c-0.2,0-0.3-0.1-0.3-0.2V63c0-0.3,0.3-0.3,0.6-0.3h0.3c0.6,0,1.4-0.1,1.4-1.7
			c0-0.7-0.4-1-1.1-1c-0.3,0-0.6,0.1-0.8,0.2c0,0,0.3,0.5,0.3,0.8c0,0.5-0.4,1-0.9,1c0,0-0.1,0-0.1,0c-0.4,0-0.7-0.2-0.7-0.6
			c0,0,0,0,0-0.1c0-1,1.2-1.7,2.6-1.7C313,59.5,313.9,60.2,313.9,61z"/>
		<path class="st3" d="M594.7,22.4c4.5-5.4,19.5-4.2,22.9,2"/>
		<path d="M594.7,22.4c4.5-6.2,19.5-5,22.9,2C614.2,19,599.2,17.8,594.7,22.4z"/>
		<path class="st4" d="M594.7,22.4c4.5-6.2,19.5-5,22.9,2C614.2,19,599.2,17.8,594.7,22.4z"/>
		<path d="M59.7,44.3h5.6v2.4h-5.6V44.3z"/>
		<line class="st5" x1="93.9" y1="35.1" x2="93.9" y2="51.7"/>
		<path d="M98,31.6c1.7,0,2.7,0.7,2.7,2c0,1.9-2.3,3.4-4.5,3.4c-1.3,0-2.4-0.7-2.4-1.8C93.8,33.4,96,31.6,98,31.6z M94.2,35.5
			c0,0.6,0.4,0.9,1.1,0.9c1.4,0,4.9-2.1,4.9-3.3c0-0.6-0.4-0.9-1.1-0.9C97.9,32.2,94.2,34.3,94.2,35.5L94.2,35.5z"/>
		<line class="st5" x1="134" y1="35.1" x2="134" y2="51.7"/>
		<path d="M133.9,35.2c0-1.8,2.5-3.5,4.5-3.5c1.3,0,2.3,0.7,2.3,1.7c0,1.8-2.5,3.5-4.6,3.5C134.8,36.9,133.9,36.3,133.9,35.2z"/>
		<path d="M144.9,34.3c0,0.5-0.5,0.9-1,0.9c0,0,0,0,0,0c-0.5,0-0.9-0.4-0.9-0.9c0-0.5,0.4-0.9,0.9-0.9
			C144.4,33.4,144.8,33.8,144.9,34.3L144.9,34.3z"/>
		<line class="st1" x1="157.2" y1="31.9" x2="167.8" y2="31.9"/>
		<line class="st5" x1="159.2" y1="32.6" x2="159.2" y2="49.2"/>
		<path d="M159.1,32.7c0-1.8,2.5-3.5,4.5-3.5c1.3,0,2.3,0.7,2.3,1.7c0,1.7-2.5,3.4-4.6,3.4C160.1,34.4,159.1,33.8,159.1,32.7z"/>
		<path d="M159.3,44.3c0.8,0,0.9,0,2.1-1c1-0.8,1.6-1.3,1.7-1.4c0.8-0.9,1.3-2.1,1.3-3.3c-0.1-1.1-0.4-2.2-1-3.2
			c-0.1-0.1-0.1-0.2-0.1-0.4c0-0.1,0-0.2,0.1-0.2c0.5,0,1.3,1.9,1.5,3c0.1,0.5,0.2,1.1,0.2,1.6c0,1.1-0.4,2.2-1.1,3
			c-0.7,0.9-1.6,1.7-2.3,2.5c-0.9,1.2-1.7,2.6-2.2,4c0,0.1,0,0.1,0,0.2c0,0.1,0,0.1,0,0.2c0,0-0.1,0-0.3,0L159.3,44.3z"/>
		<line class="st5" x1="172.4" y1="42.5" x2="172.4" y2="59.1"/>
		<path d="M176.5,39.1c1.6,0,2.7,0.7,2.7,2c0,1.9-2.3,3.4-4.5,3.4c-1.4,0-2.4-0.7-2.4-1.8C172.2,40.9,174.5,39.1,176.5,39.1z
			 M172.7,42.9c0,0.6,0.4,0.9,1.1,0.9c1.4,0,4.9-2.1,4.9-3.3c0-0.6-0.4-0.9-1.1-0.9C176.4,39.7,172.7,41.7,172.7,42.9z"/>
		<line class="st5" x1="212.3" y1="42.5" x2="212.3" y2="59.1"/>
		<path d="M216.4,39.1c1.6,0,2.7,0.7,2.7,2c0,1.9-2.3,3.4-4.5,3.4c-1.4,0-2.4-0.7-2.4-1.8C212.2,40.9,214.4,39.1,216.4,39.1z
			 M212.6,42.9c0,0.6,0.4,0.9,1.1,0.9c1.4,0,4.9-2.1,4.9-3.3c0-0.6-0.4-0.9-1.1-0.9C216.3,39.7,212.6,41.7,212.6,42.9z"/>
		<path d="M223.4,39.3c0,0.5-0.4,0.9-0.9,0.9c-0.5,0-0.9-0.4-0.9-0.9c0-0.5,0.4-0.9,0.9-1C222.9,38.3,223.3,38.7,223.4,39.3
			C223.4,39.3,223.4,39.3,223.4,39.3z"/>
		<line class="st5" x1="252" y1="42.5" x2="252" y2="59.1"/>
		<path d="M251.8,42.6c0-1.8,2.5-3.5,4.5-3.5c1.3,0,2.3,0.7,2.3,1.7c0,1.8-2.5,3.5-4.6,3.5C252.8,44.3,251.8,43.7,251.8,42.6z"/>
		<line class="st5" x1="278.1" y1="37.6" x2="278.1" y2="54.2"/>
		<path d="M278,37.7c0-1.8,2.5-3.5,4.5-3.5c1.3,0,2.3,0.7,2.3,1.7c0,1.7-2.5,3.5-4.6,3.5C279,39.4,278,38.8,278,37.7z"/>
		<path d="M289,34.3c-0.1,0.5-0.5,0.9-1,0.9c-0.5,0-0.9-0.4-0.9-0.9c-0.1-0.5,0.3-1,0.8-1c0.5-0.1,1,0.3,1,0.8
			C289,34.2,289,34.3,289,34.3L289,34.3z"/>
		<line class="st5" x1="303.8" y1="40.1" x2="303.8" y2="56.5"/>
		<path d="M303.7,40.2c0-1.8,2.5-3.5,4.5-3.5c1.3,0,2.3,0.7,2.3,1.7c0,1.7-2.5,3.5-4.6,3.5C304.6,41.9,303.7,41.2,303.7,40.2z"/>
		<line class="st5" x1="312.5" y1="37.6" x2="312.5" y2="56.5"/>
		<path d="M312.4,37.7c0-1.8,2.5-3.5,4.5-3.5c1.3,0,2.3,0.7,2.3,1.7c0,1.7-2.5,3.5-4.6,3.5C313.3,39.4,312.4,38.8,312.4,37.7z"/>
		<line class="st5" x1="321.2" y1="40.1" x2="321.2" y2="56.5"/>
		<path d="M321,40.2c0-1.8,2.5-3.5,4.5-3.5c1.3,0,2.3,0.7,2.3,1.7c0,1.7-2.5,3.5-4.6,3.5C322,41.9,321,41.2,321,40.2z"/>
		<line class="st5" x1="329.7" y1="42.5" x2="329.7" y2="59.1"/>
		<path d="M333.8,39.1c1.6,0,2.7,0.7,2.7,2c0,1.9-2.3,3.4-4.5,3.4c-1.3,0-2.4-0.7-2.4-1.8C329.5,40.9,331.8,39.1,333.8,39.1z
			 M330,42.9c0,0.6,0.4,0.9,1.1,0.9c1.4,0,4.9-2.1,4.9-3.3c0-0.6-0.4-0.9-1.1-0.9C333.7,39.7,330,41.7,330,42.9z"/>
		<line class="st5" x1="369.8" y1="42.5" x2="369.8" y2="59.1"/>
		<path d="M373.9,39.1c1.6,0,2.7,0.7,2.7,2c0,1.9-2.3,3.4-4.5,3.4c-1.4,0-2.4-0.7-2.4-1.8C369.6,40.9,371.9,39.1,373.9,39.1z
			 M370.1,42.9c0,0.6,0.4,0.9,1.1,0.9c1.4,0,4.9-2.1,4.9-3.3c0-0.6-0.4-0.9-1.1-0.9C373.8,39.7,370.1,41.7,370.1,42.9L370.1,42.9z"
			/>
		<path d="M380.8,39.3c0,0.5-0.4,0.9-1,0.9c-0.5,0-0.9-0.4-0.9-0.9c0-0.5,0.4-0.9,0.9-1C380.4,38.3,380.8,38.7,380.8,39.3
			C380.8,39.3,380.8,39.3,380.8,39.3z"/>
		<line class="st1" x1="406.9" y1="31.9" x2="417.5" y2="31.9"/>
		<line class="st5" x1="409" y1="32.6" x2="409" y2="49.2"/>
		<path d="M408.8,32.7c0-1.8,2.5-3.5,4.5-3.5c1.3,0,2.3,0.7,2.3,1.7c0,1.7-2.5,3.4-4.6,3.4C409.8,34.4,408.8,33.8,408.8,32.7z"/>
		<line class="st1" x1="432.8" y1="31.9" x2="443.3" y2="31.9"/>
		<line class="st1" x1="432.8" y1="26.9" x2="443.3" y2="26.9"/>
		<line class="st5" x1="434.8" y1="27.7" x2="434.8" y2="46.7"/>
		<path d="M434.7,27.8c0-1.8,2.5-3.5,4.5-3.5c1.3,0,2.3,0.7,2.3,1.7c0,1.8-2.5,3.5-4.5,3.5C435.6,29.5,434.7,28.9,434.7,27.8z"/>
		<path d="M445.7,24.4c-0.1,0.5-0.5,0.9-1,0.9c-0.5,0-0.9-0.4-0.9-0.9c0-0.5,0.4-0.9,0.9-0.9C445.2,23.5,445.7,23.9,445.7,24.4
			C445.7,24.4,445.7,24.4,445.7,24.4L445.7,24.4z"/>
		<line class="st1" x1="457.4" y1="31.9" x2="467.9" y2="31.9"/>
		<line class="st5" x1="459.4" y1="30.2" x2="459.4" y2="46.7"/>
		<path d="M459.3,30.2c0-1.8,2.5-3.5,4.5-3.5c1.3,0,2.3,0.7,2.3,1.7c0,1.7-2.5,3.5-4.6,3.5C460.2,32,459.3,31.3,459.3,30.2z"/>
		<path d="M456.1,36.2v-4l-3,1V22.6h0.5v4l3-1.1v10.6H456.1z M453.6,31.5l2.5-0.9v-3.3l-2.5,0.9V31.5z"/>
		<path d="M459.5,41.8c0.8,0,0.9,0,2.1-1c1-0.8,1.5-1.2,1.7-1.4c0.8-0.9,1.3-2.1,1.3-3.3c-0.1-1.1-0.4-2.2-1-3.2
			c-0.1-0.1-0.1-0.2-0.1-0.4c0-0.1,0-0.2,0.1-0.2c0.5,0,1.3,1.9,1.5,3c0.1,0.5,0.2,1.1,0.2,1.6c0,1.1-0.4,2.2-1.1,3
			c-0.7,0.9-1.5,1.7-2.3,2.5c-0.9,1.2-1.7,2.6-2.2,4c0,0.1,0,0.1,0,0.2c0,0.1,0,0.1,0,0.2c0,0-0.1,0-0.3,0L459.5,41.8z"/>
		<line class="st1" x1="470.1" y1="31.9" x2="480.6" y2="31.9"/>
		<line class="st5" x1="472.1" y1="32.6" x2="472.1" y2="49.2"/>
		<path d="M472,32.7c0-1.8,2.5-3.5,4.5-3.5c1.3,0,2.3,0.7,2.3,1.7c0,1.7-2.5,3.4-4.6,3.4C472.9,34.4,472,33.8,472,32.7z"/>
		<path d="M483,29.4c0,0.5-0.5,0.9-1,0.9c0,0,0,0,0,0c-0.5,0-0.9-0.4-0.9-0.9c0-0.5,0.4-0.9,0.9-0.9C482.5,28.5,482.9,28.9,483,29.4
			C482.9,29.4,482.9,29.4,483,29.4L483,29.4z"/>
		<line class="st5" x1="496.6" y1="35.1" x2="496.6" y2="52.8"/>
		<path d="M496.4,35.2c0-1.8,2.5-3.5,4.5-3.5c1.3,0,2.3,0.7,2.3,1.7c0,1.8-2.5,3.5-4.6,3.5C497.4,36.9,496.4,36.3,496.4,35.2z"/>
		<path d="M494,27.5v2.8l1-0.3v1.8l-1,0.3v3.4l1-0.3v1.8l-1,0.3v3.1h-0.5v-3l-1.9,0.6v3h-0.5v-2.8l-1,0.3v-1.8l1-0.3v-3.4l-1,0.3
			v-1.8l1-0.3v-3.1h0.5v3l1.9-0.6v-3H494z M493.5,32.3l-1.9,0.6v3.4l1.9-0.6V32.3z"/>
		<line class="st1" x1="504.5" y1="31.9" x2="515" y2="31.9"/>
		<line class="st5" x1="506.5" y1="32.6" x2="506.5" y2="51.5"/>
		<path d="M506.3,32.7c0-1.8,2.5-3.5,4.5-3.5c1.3,0,2.3,0.7,2.3,1.7c0,1.7-2.5,3.4-4.6,3.4C507.3,34.4,506.3,33.8,506.3,32.7z"/>
		<line class="st1" x1="523.7" y1="31.9" x2="534.4" y2="31.9"/>
		<line class="st1" x1="523.7" y1="26.9" x2="534.4" y2="26.9"/>
		<line class="st5" x1="525.7" y1="25.2" x2="525.7" y2="46.7"/>
		<path d="M529.8,21.7c1.7,0,2.7,0.7,2.7,2c0,1.9-2.3,3.4-4.5,3.4c-1.3,0-2.4-0.6-2.4-1.8C525.5,23.5,527.8,21.7,529.8,21.7z
			 M526,25.6c0,0.6,0.4,0.9,1.1,0.9c1.4,0,4.9-2.1,4.9-3.3c0-0.6-0.4-0.9-1.1-0.9C529.7,22.3,526,24.4,526,25.6z"/>
		<path d="M536.7,24.4c0,0.5-0.5,0.9-1,0.9c0,0,0,0,0,0c-0.5,0-0.9-0.4-0.9-0.9c0-0.5,0.4-0.9,0.9-0.9
			C536.2,23.5,536.6,23.9,536.7,24.4C536.7,24.4,536.7,24.4,536.7,24.4L536.7,24.4z"/>
		<line class="st1" x1="562.8" y1="31.9" x2="573.4" y2="31.9"/>
		<line class="st1" x1="562.8" y1="26.9" x2="573.4" y2="26.9"/>
		<line class="st1" x1="562.8" y1="22" x2="573.4" y2="22"/>
		<line class="st5" x1="564.9" y1="22.7" x2="564.9" y2="46.7"/>
		<path d="M564.7,22.8c0-1.8,2.5-3.5,4.5-3.5c1.3,0,2.3,0.7,2.3,1.7c0,1.7-2.5,3.5-4.6,3.5C565.7,24.5,564.7,23.9,564.7,22.8z"/>
		<line class="st1" x1="588.7" y1="31.9" x2="599.2" y2="31.9"/>
		<line class="st1" x1="588.7" y1="26.9" x2="599.2" y2="26.9"/>
		<line class="st5" x1="590.7" y1="27.7" x2="590.7" y2="46.7"/>
		<path d="M590.6,27.8c0-1.8,2.5-3.5,4.5-3.5c1.3,0,2.3,0.7,2.3,1.7c0,1.8-2.5,3.5-4.5,3.5C591.5,29.5,590.6,28.9,590.6,27.8z"/>
		<path d="M601.6,24.4c-0.1,0.5-0.5,0.9-1,0.9c-0.5,0-0.9-0.4-0.9-0.9c0-0.5,0.4-0.9,0.9-0.9C601.1,23.5,601.5,23.9,601.6,24.4
			C601.5,24.4,601.5,24.4,601.6,24.4L601.6,24.4z"/>
		<line class="st1" x1="613.2" y1="31.9" x2="623.7" y2="31.9"/>
		<line class="st5" x1="615.2" y1="30.2" x2="615.2" y2="46.7"/>
		<path d="M615,30.2c0-1.8,2.5-3.5,4.5-3.5c1.3,0,2.3,0.7,2.3,1.7c0,1.7-2.5,3.5-4.6,3.5C616,32,615,31.3,615,30.2z"/>
		<path d="M611.9,36.2v-4l-3,1V22.6h0.5v4l3-1.1v10.6H611.9z M609.3,31.5l2.5-0.9v-3.3l-2.5,0.9V31.5z"/>
		<path d="M615.2,41.8c0.8,0,0.9,0,2.2-1c1-0.8,1.5-1.2,1.7-1.4c0.8-0.9,1.3-2.1,1.3-3.3c-0.1-1.1-0.4-2.2-1-3.2
			c-0.1-0.1-0.1-0.2-0.1-0.4c0-0.1,0-0.2,0.1-0.2c0.5,0,1.3,1.9,1.5,3c0.1,0.5,0.2,1.1,0.2,1.6c0,1.1-0.4,2.2-1.1,3
			c-0.7,0.9-1.5,1.7-2.3,2.5c-0.9,1.2-1.7,2.6-2.2,4c0,0.1,0,0.1,0,0.2c0,0.1,0,0.1,0,0.2c0,0-0.1,0-0.3,0L615.2,41.8z"/>
		<line class="st1" x1="625.8" y1="31.9" x2="636.4" y2="31.9"/>
		<line class="st5" x1="627.9" y1="32.6" x2="627.9" y2="49.2"/>
		<path d="M627.7,32.7c0-1.8,2.5-3.5,4.5-3.5c1.3,0,2.3,0.7,2.3,1.7c0,1.7-2.5,3.4-4.6,3.4C628.7,34.4,627.7,33.8,627.7,32.7z"/>
		<path d="M638.7,29.4c0,0.5-0.5,0.9-1,0.9c0,0,0,0,0,0c-0.5,0-0.9-0.4-0.9-0.9c-0.1-0.5,0.3-1,0.8-1c0.5-0.1,1,0.3,1,0.8
			C638.7,29.3,638.7,29.3,638.7,29.4L638.7,29.4z"/>
		<line class="st5" x1="652.3" y1="35.1" x2="652.3" y2="52.8"/>
		<path d="M652.2,35.2c0-1.8,2.5-3.5,4.5-3.5c1.3,0,2.3,0.7,2.3,1.7c0,1.8-2.5,3.5-4.6,3.5C653.1,36.9,652.2,36.3,652.2,35.2z"/>
		<path d="M649.8,27.5v2.8l1-0.3v1.8l-1,0.3v3.4l1-0.3v1.8l-1,0.3v3.1h-0.5v-3l-1.9,0.6v3h-0.5v-2.8l-1,0.3v-1.8l1-0.3v-3.4l-1,0.3
			v-1.8l1-0.3v-3.1h0.5v3l1.9-0.6v-3H649.8z M649.3,32.3l-1.9,0.6v3.4l1.9-0.6V32.3z"/>
		<line class="st1" x1="660.2" y1="31.9" x2="670.8" y2="31.9"/>
		<line class="st5" x1="662.2" y1="32.6" x2="662.2" y2="51.5"/>
		<path d="M662.1,32.7c0-1.8,2.5-3.5,4.5-3.5c1.3,0,2.3,0.7,2.3,1.7c0,1.7-2.5,3.4-4.6,3.4C663,34.4,662.1,33.8,662.1,32.7z"/>
		<line class="st1" x1="678.8" y1="31.9" x2="693" y2="31.9"/>
		<path d="M686,29.2c2.2,0,4.5,1.1,4.5,2.7s-1.9,2.7-4.7,2.7c-2.5,0-4.5-1-4.5-2.7S683.6,29.2,686,29.2z M687.9,31.3
			c-0.4-1.1-1.4-1.8-2.6-1.7c-1.3,0-1.9,0.5-1.9,1.5c0,1.5,1.1,2.8,2.6,3c1.1,0,2.1-0.1,2.3-1.2C688.3,32.4,688.2,31.8,687.9,31.3z"
			/>
		<rect x="-39.5" y="-37.5" class="st6" width="774.2" height="46.8"/>
		<rect x="-39.5" y="-37.5" class="st6" width="41.2" height="168.3"/>
		<rect x="-39.5" y="73.7" class="st6" width="774.2" height="57.1"/>
	</g>
</g>
</svg>
